<svg width="404" height="260" viewBox="0 0 404 260" fill="none" xmlns="http://www.w3.org/2000/svg">
<g clip-path="url(#clip0_88_142)">
<mask id="mask0_88_142" style="mask-type:luminance" maskUnits="userSpaceOnUse" x="0" y="40" width="422" height="209">
<path d="M422 40.4326H0V248.433H422V40.4326Z" fill="white"/>
</mask>
<g mask="url(#mask0_88_142)">
<path d="M100.676 70.4453L100 228.645L113.063 247.902L142.362 248.433L155 229.1V71.1781L138.644 70.7232L137.892 222.037L117.512 221.923L117.457 70.4326L100.676 70.4453Z" fill="black"/>
<path d="M199.249 70.4326H182.733L161 248.433H178.263L183.707 202.186L199.791 202.249L205.754 248.433H222L199.249 70.4326ZM186.532 176.699L191.597 130.314L196.663 176.699H186.532Z" fill="black"/>
<path d="M273.632 70.4326H228V248.433H272.853L286 228.468V91.7871L273.632 70.4326ZM271.25 226.484H242.75V92.3936H271.25V226.484Z" fill="black"/>
<path d="M298.71 164.613L299.63 165.203C299.63 165.203 302.32 160.103 304.42 157.093C304.96 156.313 305.59 155.623 306.29 155.023C308.24 153.323 312.28 150.223 314.1 149.263C314.1 149.263 317.36 147.663 321.39 147.463C321.47 147.463 321.48 147.333 321.4 147.323C318.52 147.073 311.47 146.593 305.89 147.443C305.89 147.443 300.12 148.503 298.06 149.633C298.06 149.633 301.39 152.273 301.28 155.433C301.16 158.593 298.71 164.613 298.71 164.613Z" fill="#B42025" stroke="#B42025" stroke-miterlimit="10"/>
<path d="M328.46 153.593C328.53 153.563 328.58 153.673 328.51 153.703C324 156.243 309.64 164.353 308.32 165.203C308.32 165.203 303.51 168.213 303.19 170.303C303.19 170.303 302.85 169.233 301.06 169.303L300.32 166.593L328.46 153.593Z" fill="#B42025" stroke="#B42025" stroke-miterlimit="10"/>
<path d="M356.6 130.802L361.45 130.772C361.45 130.772 364.19 126.002 368.4 124.182L378.46 118.302L356.06 128.072L356.6 130.802Z" fill="#B42025" stroke="#B42025" stroke-miterlimit="10"/>
<path d="M355.85 127.063C355.85 127.063 360.21 119.653 363.63 115.843C363.63 115.843 367.19 112.143 374.11 108.563C374.11 108.563 378.57 105.933 385.93 107.793C386.19 107.853 386.31 107.443 386.06 107.343C383.43 106.193 378.73 104.693 372.58 105.013C363.76 105.463 358.87 106.323 354.23 107.823C353.87 107.943 353.86 108.513 354.21 108.643C355.72 109.173 357.97 110.593 358.68 114.363C358.68 114.363 359.59 119.843 355.14 126.873L355.85 127.063Z" fill="#B42025" stroke="#B42025" stroke-miterlimit="10"/>
<path d="M350.82 136.792L333.45 147.562C333.44 147.562 333.44 147.562 333.43 147.572H332.2C332.14 147.572 332.17 147.432 332.17 147.432L350.74 133.742C350.79 133.702 350.84 133.772 350.81 133.842C350.73 134.062 350.63 134.442 350.63 135.022C350.64 135.052 350.84 136.782 350.82 136.792Z" fill="#B42025" stroke="#B42025" stroke-miterlimit="10"/>
<path d="M352.78 129.472C352.08 129.542 348.07 129.853 346.8 128.133L321.9 138.633C321.7 138.713 321.79 139.062 322 139.002L352.88 131.222C352.97 131.202 353.04 131.082 353.02 130.952L352.89 129.603C352.89 129.533 352.84 129.472 352.78 129.472Z" fill="#B42025" stroke="#B42025" stroke-miterlimit="10"/>
<path d="M392.28 142.543C392.28 142.543 384.94 135.963 395.63 129.713C395.76 129.643 395.69 129.413 395.55 129.463C391.54 130.833 379.63 135.093 373.19 139.443C373.09 139.513 373.16 139.693 373.27 139.653C376.34 138.463 386.23 135.413 391.25 143.083L392.28 142.543Z" fill="#B42025" stroke="#B42025" stroke-miterlimit="10"/>
<path d="M396.73 146.603C396.73 146.603 371.76 148.483 369.58 150.763C369.58 150.763 366.99 149.333 368.83 148.033C368.83 148.033 372.69 149.173 384 146.613C395.32 144.053 397.53 143.023 397.53 143.023L397.7 145.223C397.69 145.213 396.75 145.523 396.73 146.603Z" fill="#B42025" stroke="#B42025" stroke-miterlimit="10"/>
<path d="M395.9 146.313C396.28 147.033 397.01 147.413 397.73 147.223C402.32 146.053 417.11 142.313 419.37 142.213C422.05 142.103 404.14 143.843 402.67 143.383C401.22 142.933 421.9 128.163 421.01 128.573C417.35 130.253 402.44 140.123 401.85 140.033C401.85 140.033 394.38 143.983 393.78 143.083C393.34 142.403 395.04 144.683 395.9 146.313Z" fill="#B42025" stroke="#B42025" stroke-miterlimit="10"/>
<path fill-rule="evenodd" clip-rule="evenodd" d="M295.9 169.413C295.99 169.953 295.93 170.533 295.63 170.963C295.05 171.793 295.46 174.053 295.79 175.503C295.98 176.253 295.77 177.043 295.28 177.593C294.49 178.483 294.35 179.603 295 182.373C295.59 184.843 298.23 185.073 299.81 184.973C300.41 184.933 301.01 184.733 301.55 184.363C305.13 181.913 318.43 180.783 320.09 180.653C320.21 180.643 320.33 180.623 320.44 180.583C328.84 177.873 332.2 180.073 333.08 180.883C333.24 181.023 333.37 181.203 333.47 181.393L339.04 191.713C339.3 192.193 339.72 192.533 340.2 192.663L356.48 197.033C356.87 197.143 357.27 197.103 357.64 196.923L365.44 193.153C365.49 193.133 365.53 193.113 365.57 193.083C366.11 192.763 369.84 190.443 369.48 188.123C369.35 187.253 369.35 186.443 369.42 185.763C369.52 184.783 370.19 183.923 371.06 183.853C373.48 183.663 373.44 178.973 371.91 172.873C370.17 165.903 383.92 165.193 383.92 165.193C386.399 165.158 387.067 164.537 388.009 163.66C388.393 163.303 388.823 162.903 389.44 162.483C391.57 161.033 393.12 161.613 393.12 161.613C396.51 161.923 397.58 161.033 398.45 160.243C403.31 155.853 400.28 152.443 398.97 151.313C398.64 151.033 398.41 150.623 398.31 150.163C397.77 147.653 397.09 146.853 396.59 146.633C396.04 146.393 395.66 145.823 395.48 145.193C395.19 144.193 394.87 143.443 394.54 142.883C393.48 141.053 390.9 142.073 391.14 144.243C391.16 144.393 391.18 144.473 391.18 144.473C391.238 148.513 390.8 148.758 390.447 148.956C390.317 149.029 390.198 149.095 390.12 149.343C389.99 149.763 390.06 150.583 390.18 151.323C390.35 152.393 389.77 153.423 388.85 153.723C387.13 154.283 383.81 154.943 377.72 154.863C369.83 154.763 362.8 153.743 359.76 153.233C358.79 153.073 358.1 152.103 358.17 151.003C358.29 149.223 358.74 146.753 360.29 145.963C362.81 144.683 362.52 141.973 362.52 141.973C362.61 137.363 359.51 136.973 359.51 136.973C359.51 136.973 359.51 138.683 359.22 134.733C359.04 132.333 358.11 131.393 357.41 131.023C356.88 130.753 356.52 130.193 356.41 129.553C356.01 127.223 355.33 124.873 353.11 125.663C351.27 126.313 351.46 129.173 351.73 130.803C351.83 131.423 351.69 132.053 351.34 132.533C350.2 134.113 350.57 137.673 350.81 139.253C350.88 139.713 350.81 140.183 350.61 140.583C349.78 142.223 350.05 144.263 350.33 145.473C350.49 146.163 350.33 146.893 349.9 147.423L347.36 150.573C347.25 150.713 347.17 150.863 347.09 151.023C345.72 153.843 338.87 158.933 338.87 158.933C339.408 159.764 318.181 168.832 309.099 172.712C306.702 173.736 305.151 174.399 305.07 174.453C304.69 174.713 303.23 173.923 303.33 171.293C303.39 169.863 302.69 169.363 302.05 169.213C301.39 169.063 300.89 168.473 300.69 167.743C300.18 165.843 299.22 163.863 297.23 164.593C295.5 165.223 295.64 167.833 295.9 169.413ZM358.42 141.903C356.03 141.993 351.44 142.663 351.78 144.163C352.06 145.423 352.5 148.573 350 152.733C347.46 156.913 346.5 162.253 346.5 162.253L351.99 178.313C351.99 178.313 364.87 183.413 368.49 182.503C372.11 181.593 371.04 177.583 371.04 177.583C371.04 177.583 367.47 170.563 371.51 166.973C372.8 165.833 379.31 163.373 384.02 163.673C385.889 163.799 387.253 162.801 389.097 161.45C389.295 161.305 389.499 161.155 389.71 161.003C391.794 159.49 392.63 159.751 393.518 160.028C394.308 160.274 395.14 160.533 396.93 159.563C398.678 158.611 398.757 158.065 398.851 157.412C398.854 157.392 398.857 157.373 398.86 157.353C398.96 156.693 397.35 155.953 396.86 156.113L388.2 159.013C388.2 159.013 368.18 163.683 362.8 162.253C362.747 162.239 362.694 162.225 362.642 162.211C360.399 161.62 359.3 161.331 357.57 159.503C355.83 157.663 355.1 154.763 355.29 152.953C355.419 151.697 355.428 150.668 355.436 149.827C355.452 147.935 355.46 146.99 356.81 146.533C358.81 145.853 363.85 141.703 358.42 141.903Z" fill="#B42025"/>
<path d="M295.79 175.503L295.302 175.614L295.305 175.626L295.79 175.503ZM295.28 177.593L294.907 177.26L294.906 177.261L295.28 177.593ZM295 182.373L294.513 182.487L294.514 182.489L295 182.373ZM301.55 184.363L301.268 183.95L301.267 183.951L301.55 184.363ZM320.09 180.653L320.129 181.151H320.131L320.09 180.653ZM320.44 180.583L320.286 180.107L320.278 180.11L320.269 180.113L320.44 180.583ZM333.08 180.883L332.741 181.251L332.751 181.259L333.08 180.883ZM333.47 181.393L333.027 181.626L333.03 181.63L333.47 181.393ZM339.04 191.713L338.6 191.95V191.951L339.04 191.713ZM340.2 192.663L340.069 193.146H340.07L340.2 192.663ZM356.48 197.033L356.616 196.552L356.61 196.55L356.48 197.033ZM357.64 196.923L357.422 196.473H357.421L357.64 196.923ZM365.44 193.153L365.254 192.689L365.238 192.695L365.222 192.703L365.44 193.153ZM365.57 193.083L365.315 192.653L365.292 192.667L365.27 192.683L365.57 193.083ZM369.48 188.123L368.985 188.197L368.986 188.2L369.48 188.123ZM371.06 183.853L371.021 183.355H371.02L371.06 183.853ZM383.92 165.193L383.913 164.693H383.903L383.894 164.694L383.92 165.193ZM393.12 161.613L392.945 162.081L393.008 162.105L393.074 162.111L393.12 161.613ZM398.45 160.243L398.115 159.872L398.114 159.873L398.45 160.243ZM398.97 151.313L399.297 150.934L399.293 150.932L398.97 151.313ZM395.48 145.193L395.961 145.056L395.96 145.054L395.48 145.193ZM394.54 142.883L394.107 143.134L394.109 143.137L394.54 142.883ZM391.14 144.243L390.643 144.298L390.644 144.309L391.14 144.243ZM391.18 144.473L391.68 144.466L391.679 144.408L391.665 144.352L391.18 144.473ZM390.12 149.343L389.643 149.193L389.642 149.195L390.12 149.343ZM390.18 151.323L390.674 151.245L390.673 151.243L390.18 151.323ZM359.76 153.233L359.843 152.74H359.841L359.76 153.233ZM358.17 151.003L357.671 150.969V150.971L358.17 151.003ZM360.29 145.963L360.064 145.517L360.063 145.518L360.29 145.963ZM362.52 141.973L362.02 141.963L362.019 141.995L362.023 142.026L362.52 141.973ZM359.51 136.973L359.572 136.477L359.01 136.406V136.973H359.51ZM357.41 131.023L357.644 130.581L357.637 130.577L357.41 131.023ZM353.11 125.663L353.276 126.134L353.278 126.134L353.11 125.663ZM351.73 130.803L352.224 130.723L352.223 130.721L351.73 130.803ZM351.34 132.533L350.936 132.238L350.934 132.24L351.34 132.533ZM350.61 140.583L351.056 140.809L351.057 140.807L350.61 140.583ZM349.9 147.423L349.512 147.108L349.511 147.109L349.9 147.423ZM347.36 150.573L346.971 150.259L346.967 150.264L347.36 150.573ZM347.09 151.023L346.643 150.799L346.64 150.805L347.09 151.023ZM338.87 158.933L338.572 158.532L338.195 158.811L338.45 159.205L338.87 158.933ZM305.07 174.453L304.793 174.037L304.788 174.04L305.07 174.453ZM303.33 171.293L302.83 171.272V171.274L303.33 171.293ZM302.05 169.213L302.164 168.726L302.161 168.725L302.05 169.213ZM300.69 167.743L300.207 167.873L300.208 167.875L300.69 167.743ZM297.23 164.593L297.401 165.063L297.402 165.062L297.23 164.593ZM351.78 144.163L352.268 144.054V144.052L351.78 144.163ZM358.42 141.903L358.402 141.403H358.401L358.42 141.903ZM350 152.733L350.427 152.993L350.429 152.99L350 152.733ZM346.5 162.253L346.008 162.164L345.985 162.292L346.027 162.415L346.5 162.253ZM351.99 178.313L351.517 178.475L351.591 178.693L351.806 178.778L351.99 178.313ZM371.04 177.583L371.523 177.454L371.51 177.403L371.486 177.356L371.04 177.583ZM371.51 166.973L371.179 166.598L371.178 166.599L371.51 166.973ZM384.02 163.673L384.054 163.174H384.052L384.02 163.673ZM389.71 161.003L390.003 161.408H390.004L389.71 161.003ZM396.93 159.563L397.168 160.002H397.169L396.93 159.563ZM398.86 157.353L398.366 157.278L398.365 157.28L398.86 157.353ZM396.86 156.113L396.705 155.638L396.701 155.639L396.86 156.113ZM388.2 159.013L388.314 159.5L388.336 159.494L388.359 159.487L388.2 159.013ZM356.81 146.533L356.97 147.006H356.971L356.81 146.533ZM296.04 171.249C296.441 170.675 296.496 169.947 296.393 169.331L295.407 169.494C295.484 169.958 295.419 170.391 295.22 170.677L296.04 171.249ZM296.277 175.392C296.114 174.674 295.935 173.773 295.867 172.959C295.833 172.551 295.828 172.18 295.861 171.872C295.895 171.555 295.965 171.356 296.04 171.249L295.22 170.677C295.005 170.985 294.908 171.38 294.867 171.765C294.824 172.16 294.833 172.6 294.87 173.042C294.945 173.928 295.136 174.882 295.302 175.614L296.277 175.392ZM295.653 177.926C296.251 177.255 296.506 176.295 296.275 175.38L295.305 175.626C295.454 176.211 295.289 176.831 294.907 177.26L295.653 177.926ZM295.487 182.259C295.164 180.885 295.052 179.973 295.099 179.314C295.144 178.684 295.334 178.286 295.654 177.925L294.906 177.261C294.436 177.79 294.161 178.397 294.101 179.243C294.043 180.058 294.185 181.091 294.513 182.487L295.487 182.259ZM299.778 184.474C299.018 184.522 298.046 184.486 297.211 184.169C296.4 183.861 295.735 183.298 295.486 182.257L294.514 182.489C294.855 183.918 295.805 184.705 296.856 185.104C297.884 185.495 299.022 185.524 299.842 185.472L299.778 184.474ZM301.267 183.951C300.801 184.27 300.288 184.44 299.777 184.474L299.842 185.472C300.531 185.426 301.218 185.196 301.833 184.775L301.267 183.951ZM320.051 180.155C319.216 180.22 315.462 180.536 311.465 181.144C309.467 181.447 307.399 181.825 305.6 182.283C303.819 182.737 302.241 183.284 301.268 183.95L301.832 184.776C302.649 184.217 304.076 183.704 305.847 183.253C307.601 182.806 309.633 182.434 311.615 182.132C315.578 181.53 319.304 181.216 320.129 181.151L320.051 180.155ZM320.269 180.113C320.216 180.132 320.144 180.147 320.048 180.155L320.131 181.151C320.276 181.139 320.444 181.114 320.611 181.053L320.269 180.113ZM333.419 180.515C332.373 179.553 328.811 177.357 320.286 180.107L320.593 181.059C328.869 178.389 332.027 180.593 332.741 181.251L333.419 180.515ZM333.912 181.16C333.791 180.93 333.626 180.697 333.409 180.507L332.751 181.259C332.854 181.349 332.949 181.476 333.027 181.626L333.912 181.16ZM339.48 191.476L333.91 181.156L333.03 181.63L338.6 191.95L339.48 191.476ZM340.331 192.18C339.993 192.089 339.68 191.845 339.48 191.476L338.6 191.951C338.92 192.542 339.447 192.977 340.069 193.146L340.331 192.18ZM356.61 196.55L340.33 192.18L340.07 193.146L356.35 197.516L356.61 196.55ZM357.421 196.473C357.157 196.602 356.883 196.627 356.616 196.552L356.344 197.514C356.857 197.659 357.383 197.604 357.859 197.373L357.421 196.473ZM365.222 192.703L357.422 196.473L357.858 197.373L365.658 193.603L365.222 192.703ZM365.27 192.683C365.271 192.682 365.272 192.682 365.273 192.681C365.274 192.68 365.275 192.68 365.275 192.68C365.274 192.68 365.269 192.683 365.254 192.689L365.626 193.617C365.699 193.588 365.783 193.548 365.87 193.483L365.27 192.683ZM368.986 188.2C369.053 188.633 368.935 189.098 368.661 189.587C368.386 190.077 367.975 190.555 367.518 190.991C366.602 191.863 365.572 192.501 365.315 192.653L365.825 193.513C366.108 193.345 367.212 192.663 368.207 191.715C368.705 191.241 369.192 190.684 369.533 190.076C369.874 189.468 370.087 188.773 369.974 188.046L368.986 188.2ZM368.923 185.712C368.849 186.431 368.849 187.283 368.985 188.197L369.974 188.049C369.851 187.223 369.851 186.455 369.917 185.814L368.923 185.712ZM371.02 183.355C369.827 183.451 369.038 184.585 368.923 185.712L369.917 185.814C370.002 184.981 370.552 184.395 371.1 184.351L371.02 183.355ZM371.425 172.994C372.186 176.026 372.564 178.668 372.467 180.553C372.418 181.5 372.251 182.206 371.992 182.672C371.747 183.113 371.432 183.322 371.021 183.355L371.099 184.351C371.898 184.289 372.486 183.841 372.866 183.158C373.232 182.5 373.413 181.618 373.466 180.605C373.571 178.573 373.164 175.819 372.395 172.751L371.425 172.994ZM383.92 165.193C383.894 164.694 383.894 164.694 383.894 164.694H383.893C383.892 164.694 383.892 164.694 383.891 164.694C383.889 164.694 383.886 164.694 383.882 164.694C383.875 164.695 383.864 164.695 383.851 164.696C383.823 164.698 383.783 164.7 383.732 164.704C383.628 164.711 383.478 164.722 383.288 164.739C382.909 164.773 382.37 164.829 381.73 164.918C380.452 165.095 378.756 165.407 377.108 165.944C375.469 166.477 373.825 167.25 372.698 168.379C371.545 169.536 370.943 171.062 371.425 172.994L372.395 172.752C372.007 171.199 372.471 170.023 373.406 169.086C374.368 168.122 375.836 167.41 377.417 166.895C378.989 166.383 380.622 166.081 381.868 165.908C382.489 165.822 383.011 165.768 383.377 165.735C383.559 165.719 383.703 165.708 383.8 165.702C383.849 165.698 383.886 165.696 383.91 165.694C383.923 165.694 383.932 165.693 383.938 165.693C383.941 165.693 383.943 165.693 383.944 165.692C383.945 165.692 383.945 165.692 383.946 165.692C383.946 165.692 383.946 165.692 383.92 165.193ZM387.669 163.294C387.192 163.737 386.845 164.056 386.335 164.286C385.826 164.517 385.114 164.676 383.913 164.693L383.927 165.693C385.205 165.675 386.067 165.505 386.747 165.197C387.426 164.89 387.884 164.459 388.35 164.026L387.669 163.294ZM389.159 162.07C388.508 162.513 388.054 162.936 387.669 163.294L388.35 164.026C388.733 163.67 389.138 163.293 389.721 162.896L389.159 162.07ZM393.12 161.613C393.295 161.145 393.295 161.145 393.295 161.144C393.294 161.144 393.294 161.144 393.294 161.144C393.293 161.144 393.293 161.144 393.293 161.144C393.292 161.143 393.29 161.143 393.289 161.143C393.287 161.142 393.284 161.141 393.281 161.14C393.275 161.137 393.267 161.135 393.258 161.132C393.239 161.126 393.215 161.118 393.184 161.109C393.123 161.092 393.038 161.072 392.932 161.053C392.719 161.015 392.42 160.985 392.051 161.005C391.308 161.046 390.3 161.293 389.159 162.07L389.721 162.896C390.71 162.223 391.542 162.035 392.106 162.003C392.391 161.988 392.612 162.012 392.757 162.037C392.829 162.05 392.882 162.063 392.914 162.072C392.93 162.077 392.941 162.08 392.946 162.082C392.949 162.083 392.95 162.083 392.95 162.083C392.95 162.083 392.949 162.083 392.948 162.083C392.948 162.082 392.946 162.082 392.946 162.082L392.945 162.081C392.945 162.08 392.945 162.081 393.12 161.613ZM398.114 159.873C397.69 160.257 397.266 160.621 396.563 160.869C395.853 161.12 394.815 161.266 393.165 161.115L393.074 162.111C394.815 162.27 396.007 162.126 396.896 161.812C397.794 161.495 398.339 161.019 398.786 160.613L398.114 159.873ZM398.643 151.692C399.27 152.232 400.253 153.276 400.534 154.655C400.804 155.982 400.45 157.763 398.115 159.872L398.785 160.614C401.31 158.333 401.871 156.214 401.514 154.456C401.167 152.75 399.98 151.524 399.297 150.934L398.643 151.692ZM397.821 150.268C397.941 150.82 398.221 151.333 398.646 151.694L399.293 150.932C399.059 150.733 398.879 150.425 398.799 150.057L397.821 150.268ZM396.389 147.091C396.506 147.142 396.73 147.299 396.998 147.782C397.265 148.264 397.557 149.04 397.821 150.268L398.799 150.057C398.523 148.775 398.205 147.897 397.872 147.297C397.54 146.697 397.174 146.344 396.791 146.175L396.389 147.091ZM394.999 145.33C395.202 146.042 395.653 146.77 396.39 147.091L396.791 146.175C396.428 146.016 396.117 145.604 395.961 145.056L394.999 145.33ZM394.109 143.137C394.413 143.652 394.718 144.361 395 145.332L395.96 145.054C395.662 144.025 395.327 143.234 394.971 142.629L394.109 143.137ZM391.637 144.188C391.542 143.329 391.997 142.743 392.537 142.528C393.067 142.317 393.708 142.444 394.107 143.134L394.973 142.632C394.312 141.492 393.133 141.214 392.168 141.598C391.213 141.978 390.498 142.987 390.643 144.298L391.637 144.188ZM391.18 144.473C391.665 144.352 391.665 144.352 391.665 144.352C391.665 144.353 391.666 144.354 391.666 144.354C391.666 144.355 391.666 144.355 391.666 144.354C391.666 144.354 391.665 144.353 391.665 144.35C391.663 144.344 391.661 144.334 391.658 144.319C391.653 144.29 391.644 144.242 391.636 144.177L390.644 144.309C390.656 144.394 390.667 144.461 390.677 144.509C390.681 144.533 390.685 144.552 390.688 144.567C390.69 144.574 390.691 144.58 390.692 144.584C390.693 144.586 390.693 144.588 390.694 144.59C390.694 144.591 390.694 144.592 390.694 144.592C390.694 144.593 390.695 144.593 390.695 144.593C390.695 144.593 390.695 144.594 391.18 144.473ZM390.691 149.392C390.785 149.34 390.956 149.247 391.111 149.05C391.261 148.861 391.37 148.611 391.453 148.276C391.616 147.617 391.709 146.489 391.68 144.466L390.68 144.48C390.709 146.497 390.612 147.512 390.483 148.035C390.419 148.291 390.357 148.392 390.326 148.431C390.302 148.461 390.286 148.473 390.203 148.52L390.691 149.392ZM390.597 149.493C390.607 149.46 390.616 149.443 390.62 149.437C390.623 149.431 390.623 149.432 390.62 149.434C390.619 149.436 390.619 149.432 390.691 149.392L390.203 148.52C390.144 148.552 390.02 148.618 389.907 148.733C389.786 148.856 389.701 149.008 389.643 149.193L390.597 149.493ZM390.673 151.243C390.615 150.885 390.571 150.515 390.556 150.19C390.54 149.85 390.56 149.613 390.598 149.491L389.642 149.195C389.55 149.493 389.54 149.876 389.557 150.236C389.574 150.611 389.624 151.021 389.686 151.403L390.673 151.243ZM389.005 154.198C390.192 153.811 390.877 152.521 390.674 151.245L389.686 151.401C389.823 152.265 389.348 153.035 388.695 153.248L389.005 154.198ZM377.713 155.363C383.838 155.443 387.217 154.781 389.005 154.198L388.695 153.248C387.043 153.785 383.781 154.443 377.727 154.363L377.713 155.363ZM359.677 153.726C362.731 154.238 369.787 155.263 377.713 155.363L377.727 154.363C369.873 154.263 362.869 153.248 359.843 152.74L359.677 153.726ZM357.671 150.971C357.588 152.279 358.41 153.517 359.679 153.726L359.841 152.74C359.17 152.629 358.612 151.927 358.669 151.035L357.671 150.971ZM360.063 145.518C359.117 146 358.558 146.964 358.221 147.95C357.879 148.948 357.732 150.059 357.671 150.969L358.669 151.037C358.727 150.167 358.866 149.153 359.167 148.274C359.472 147.382 359.913 146.716 360.517 146.408L360.063 145.518ZM362.52 141.973C362.023 142.026 362.023 142.026 362.023 142.026V142.024C362.023 142.024 362.023 142.025 362.023 142.026C362.023 142.029 362.023 142.034 362.024 142.041C362.025 142.056 362.027 142.079 362.028 142.112C362.03 142.176 362.032 142.273 362.026 142.394C362.015 142.638 361.977 142.977 361.87 143.349C361.656 144.087 361.172 144.954 360.064 145.517L360.516 146.409C361.928 145.692 362.559 144.564 362.83 143.627C362.965 143.162 363.012 142.743 363.025 142.439C363.032 142.286 363.031 142.161 363.027 142.072C363.025 142.028 363.023 141.992 363.021 141.966C363.02 141.954 363.019 141.943 363.019 141.935C363.018 141.931 363.018 141.928 363.018 141.926C363.018 141.924 363.017 141.923 363.017 141.922V141.92C363.017 141.92 363.017 141.92 362.52 141.973ZM359.51 136.973C359.448 137.469 359.447 137.469 359.447 137.469C359.447 137.469 359.446 137.469 359.445 137.468C359.445 137.468 359.444 137.468 359.444 137.468C359.444 137.468 359.444 137.468 359.445 137.468C359.447 137.469 359.451 137.469 359.458 137.471C359.473 137.473 359.497 137.478 359.53 137.485C359.596 137.501 359.695 137.528 359.817 137.574C360.061 137.665 360.39 137.83 360.718 138.119C361.356 138.682 362.063 139.783 362.02 141.963L363.02 141.983C363.067 139.552 362.269 138.153 361.379 137.369C360.943 136.984 360.503 136.763 360.169 136.638C360.001 136.575 359.859 136.535 359.756 136.511C359.705 136.499 359.662 136.491 359.631 136.486C359.616 136.483 359.603 136.481 359.593 136.479C359.588 136.479 359.584 136.478 359.58 136.478C359.579 136.477 359.577 136.477 359.576 136.477C359.575 136.477 359.574 136.477 359.574 136.477L359.573 136.477C359.573 136.477 359.572 136.477 359.51 136.973ZM358.721 134.769C358.794 135.758 358.849 136.398 358.89 136.8C358.911 137.001 358.929 137.148 358.945 137.253C358.953 137.305 358.961 137.352 358.97 137.394C358.976 137.418 358.993 137.497 359.035 137.574C359.048 137.597 359.072 137.638 359.112 137.681C359.15 137.721 359.23 137.793 359.356 137.825C359.689 137.91 359.875 137.656 359.905 137.61C359.949 137.541 359.967 137.477 359.972 137.458C359.98 137.43 359.985 137.405 359.988 137.387C359.998 137.324 360.003 137.251 360.005 137.201C360.007 137.144 360.009 137.087 360.009 137.046C360.01 137.025 360.01 137.007 360.01 136.994C360.01 136.988 360.01 136.982 360.01 136.979C360.01 136.977 360.01 136.976 360.01 136.975C360.01 136.974 360.01 136.974 360.01 136.973C360.01 136.973 360.01 136.973 360.01 136.973C360.01 136.973 360.01 136.973 359.51 136.973C359.01 136.973 359.01 136.973 359.01 136.973C359.01 136.972 359.01 136.973 359.01 136.973C359.01 136.973 359.01 136.975 359.01 136.976C359.01 136.979 359.01 136.983 359.01 136.988C359.01 136.998 359.01 137.013 359.009 137.031C359.009 137.068 359.008 137.113 359.006 137.155C359.004 137.204 359.001 137.225 359.001 137.224C359.002 137.222 359.004 137.21 359.009 137.192C359.011 137.184 359.025 137.128 359.066 137.065C359.093 137.024 359.275 136.772 359.604 136.856C359.729 136.888 359.806 136.959 359.842 136.997C359.88 137.037 359.902 137.075 359.912 137.094C359.945 137.154 359.952 137.202 359.946 137.174C359.944 137.165 359.94 137.143 359.933 137.102C359.921 137.021 359.905 136.892 359.885 136.698C359.845 136.31 359.791 135.682 359.719 134.696L358.721 134.769ZM357.176 131.465C357.694 131.738 358.551 132.503 358.721 134.769L359.719 134.696C359.528 132.162 358.526 131.047 357.644 130.581L357.176 131.465ZM355.917 129.637C356.048 130.398 356.484 131.112 357.183 131.468L357.637 130.577C357.276 130.393 356.992 129.987 356.903 129.468L355.917 129.637ZM353.278 126.134C353.749 125.966 354.082 125.983 354.328 126.077C354.579 126.173 354.809 126.375 355.021 126.707C355.458 127.391 355.716 128.466 355.917 129.637L356.903 129.468C356.704 128.309 356.422 127.044 355.864 126.169C355.578 125.72 355.197 125.338 354.684 125.142C354.165 124.945 353.581 124.964 352.942 125.192L353.278 126.134ZM352.223 130.721C352.091 129.923 351.986 128.861 352.123 127.939C352.262 127.004 352.62 126.366 353.276 126.134L352.943 125.191C351.759 125.609 351.293 126.727 351.134 127.792C350.974 128.869 351.099 130.052 351.237 130.884L352.223 130.721ZM351.744 132.827C352.178 132.231 352.343 131.464 352.224 130.723L351.236 130.882C351.317 131.381 351.201 131.874 350.936 132.238L351.744 132.827ZM351.304 139.178C351.186 138.401 351.038 137.146 351.057 135.9C351.077 134.624 351.273 133.48 351.745 132.825L350.934 132.24C350.267 133.166 350.078 134.591 350.057 135.885C350.037 137.209 350.194 138.525 350.316 139.328L351.304 139.178ZM351.057 140.807C351.306 140.309 351.389 139.734 351.304 139.178L350.316 139.328C350.371 139.691 350.314 140.056 350.163 140.359L351.057 140.807ZM350.817 145.36C350.541 144.169 350.311 142.281 351.056 140.809L350.164 140.357C349.249 142.165 349.558 144.357 349.843 145.586L350.817 145.36ZM350.288 147.738C350.82 147.082 351.01 146.193 350.817 145.36L349.843 145.586C349.97 146.133 349.84 146.704 349.512 147.108L350.288 147.738ZM347.749 150.887L350.289 147.737L349.511 147.109L346.971 150.259L347.749 150.887ZM347.537 151.247C347.615 151.091 347.676 150.98 347.753 150.882L346.967 150.264C346.823 150.447 346.725 150.635 346.643 150.799L347.537 151.247ZM338.87 158.933C339.168 159.334 339.168 159.334 339.168 159.334C339.168 159.334 339.168 159.334 339.169 159.334C339.169 159.334 339.169 159.334 339.17 159.333C339.171 159.333 339.172 159.332 339.174 159.33C339.177 159.328 339.182 159.324 339.189 159.319C339.202 159.309 339.222 159.294 339.248 159.275C339.299 159.236 339.374 159.18 339.47 159.107C339.662 158.961 339.937 158.749 340.271 158.487C340.938 157.962 341.843 157.233 342.793 156.414C343.741 155.596 344.739 154.684 345.589 153.794C346.43 152.914 347.161 152.02 347.54 151.241L346.64 150.805C346.334 151.436 345.695 152.236 344.866 153.103C344.047 153.961 343.075 154.85 342.14 155.657C341.205 156.463 340.312 157.182 339.653 157.7C339.323 157.959 339.052 158.168 338.864 158.311C338.77 158.383 338.696 158.438 338.647 158.476C338.622 158.494 338.603 158.508 338.59 158.518C338.584 158.523 338.579 158.526 338.576 158.528C338.575 158.53 338.573 158.53 338.573 158.531C338.572 158.531 338.572 158.531 338.572 158.532C338.572 158.532 338.572 158.532 338.87 158.933ZM309.296 173.172C313.836 171.232 321.417 167.993 327.797 165.135C330.985 163.707 333.88 162.371 335.946 161.338C336.977 160.823 337.813 160.378 338.379 160.031C338.658 159.86 338.893 159.7 339.055 159.557C339.132 159.489 339.223 159.399 339.288 159.289C339.346 159.192 339.463 158.929 339.29 158.661L338.45 159.205C338.31 158.989 338.419 158.794 338.427 158.78C338.443 158.754 338.444 158.762 338.393 158.807C338.299 158.89 338.124 159.014 337.856 159.178C337.329 159.501 336.524 159.931 335.499 160.444C333.452 161.466 330.574 162.795 327.388 164.223C321.018 167.077 313.445 170.312 308.903 172.252L309.296 173.172ZM305.347 174.869C305.316 174.89 305.304 174.893 305.378 174.859C305.429 174.835 305.502 174.802 305.599 174.76C305.791 174.675 306.066 174.556 306.414 174.405C307.111 174.105 308.097 173.684 309.296 173.172L308.903 172.252C307.705 172.764 306.717 173.186 306.019 173.487C305.67 173.637 305.391 173.758 305.195 173.845C305.097 173.888 305.017 173.924 304.959 173.951C304.923 173.967 304.844 174.003 304.793 174.037L305.347 174.869ZM302.83 171.274C302.777 172.683 303.14 173.664 303.631 174.271C303.875 174.572 304.154 174.785 304.431 174.9C304.677 175.003 305.048 175.074 305.352 174.866L304.788 174.04C304.902 173.962 304.948 174.032 304.816 173.977C304.716 173.936 304.565 173.836 304.408 173.642C304.1 173.262 303.783 172.533 303.83 171.312L302.83 171.274ZM301.936 169.7C302.176 169.756 302.397 169.87 302.556 170.077C302.714 170.284 302.857 170.641 302.83 171.272L303.829 171.314C303.863 170.515 303.686 169.907 303.349 169.469C303.013 169.031 302.564 168.82 302.164 168.726L301.936 169.7ZM300.208 167.875C300.441 168.725 301.047 169.498 301.939 169.701L302.161 168.725C301.733 168.628 301.339 168.221 301.172 167.611L300.208 167.875ZM297.402 165.062C297.815 164.911 298.137 164.912 298.396 164.989C298.659 165.068 298.905 165.24 299.136 165.508C299.612 166.06 299.956 166.938 300.207 167.873L301.173 167.613C300.914 166.648 300.523 165.586 299.894 164.855C299.573 164.483 299.173 164.178 298.681 164.031C298.184 163.883 297.64 163.91 297.058 164.124L297.402 165.062ZM296.393 169.332C296.266 168.56 296.176 167.575 296.312 166.726C296.45 165.869 296.788 165.286 297.401 165.063L297.059 164.123C295.941 164.53 295.485 165.567 295.325 166.568C295.164 167.576 295.273 168.686 295.407 169.494L296.393 169.332ZM352.268 144.052C352.254 143.991 352.247 143.847 352.612 143.608C352.963 143.378 353.517 143.167 354.202 142.988C355.561 142.634 357.268 142.447 358.439 142.403L358.401 141.403C357.182 141.449 355.399 141.642 353.95 142.02C353.232 142.208 352.552 142.451 352.064 142.771C351.589 143.083 351.136 143.584 351.292 144.273L352.268 144.052ZM350.429 152.99C353.011 148.693 352.568 145.404 352.268 144.054L351.292 144.271C351.552 145.441 351.989 148.453 349.571 152.475L350.429 152.99ZM346.5 162.253C346.992 162.341 346.992 162.341 346.992 162.341C346.992 162.341 346.992 162.34 346.993 162.339C346.993 162.337 346.994 162.333 346.994 162.328C346.996 162.319 346.999 162.305 347.003 162.286C347.01 162.247 347.021 162.19 347.036 162.114C347.067 161.964 347.113 161.743 347.177 161.465C347.305 160.908 347.501 160.12 347.776 159.204C348.328 157.367 349.188 155.031 350.427 152.993L349.573 152.473C348.272 154.614 347.382 157.039 346.819 158.917C346.536 159.858 346.334 160.667 346.202 161.242C346.136 161.529 346.088 161.758 346.056 161.916C346.04 161.995 346.028 162.056 346.02 162.098C346.016 162.119 346.013 162.135 346.011 162.146C346.01 162.152 346.009 162.156 346.009 162.159C346.009 162.161 346.008 162.163 346.008 162.164C346.008 162.164 346.008 162.164 346.5 162.253ZM352.463 178.151L346.973 162.091L346.027 162.415L351.517 178.475L352.463 178.151ZM368.368 182.018C367.992 182.113 367.457 182.136 366.779 182.086C366.109 182.035 365.331 181.915 364.485 181.742C362.793 181.397 360.862 180.851 359.033 180.272C357.206 179.695 355.491 179.088 354.231 178.626C353.602 178.395 353.087 178.2 352.729 178.063C352.551 177.995 352.412 177.941 352.317 177.904C352.27 177.886 352.234 177.872 352.21 177.862C352.198 177.857 352.189 177.854 352.183 177.851C352.18 177.85 352.178 177.849 352.176 177.849C352.175 177.849 352.175 177.848 352.175 177.848C352.175 177.848 352.174 177.848 351.99 178.313C351.806 178.778 351.806 178.778 351.806 178.778C351.806 178.778 351.806 178.778 351.807 178.778C351.807 178.778 351.808 178.778 351.809 178.779C351.81 178.779 351.813 178.78 351.816 178.782C351.822 178.784 351.832 178.788 351.844 178.793C351.869 178.803 351.906 178.817 351.954 178.836C352.05 178.873 352.191 178.928 352.372 178.997C352.733 179.136 353.252 179.332 353.887 179.565C355.155 180.031 356.886 180.642 358.732 181.226C360.575 181.809 362.544 182.367 364.285 182.722C365.155 182.9 365.978 183.028 366.704 183.083C367.424 183.137 368.083 183.121 368.612 182.988L368.368 182.018ZM371.04 177.583C370.557 177.712 370.557 177.712 370.557 177.711C370.557 177.712 370.557 177.714 370.558 177.716C370.559 177.721 370.562 177.73 370.564 177.743C370.57 177.767 370.579 177.805 370.589 177.855C370.608 177.954 370.634 178.1 370.654 178.279C370.694 178.64 370.712 179.121 370.629 179.62C370.547 180.118 370.367 180.616 370.027 181.035C369.692 181.448 369.177 181.815 368.368 182.018L368.612 182.988C369.613 182.736 370.322 182.26 370.804 181.665C371.282 181.076 371.513 180.401 371.616 179.783C371.718 179.166 371.695 178.588 371.648 178.168C371.624 177.957 371.594 177.783 371.569 177.659C371.557 177.598 371.546 177.549 371.538 177.514C371.534 177.496 371.53 177.483 371.528 177.473C371.527 177.468 371.526 177.463 371.525 177.46C371.524 177.459 371.524 177.457 371.524 177.456L371.523 177.455C371.523 177.455 371.523 177.455 371.523 177.454C371.523 177.454 371.523 177.454 371.04 177.583ZM371.178 166.599C368.96 168.57 368.87 171.451 369.268 173.711C369.468 174.853 369.799 175.874 370.078 176.608C370.218 176.975 370.345 177.273 370.439 177.48C370.485 177.583 370.524 177.664 370.55 177.72C370.564 177.748 370.574 177.769 370.582 177.785C370.586 177.792 370.588 177.798 370.591 177.802C370.592 177.804 370.592 177.806 370.593 177.807C370.593 177.808 370.594 177.808 370.594 177.809C370.594 177.809 370.594 177.81 371.04 177.583C371.486 177.356 371.486 177.356 371.486 177.356C371.485 177.356 371.485 177.355 371.484 177.353C371.483 177.351 371.481 177.347 371.478 177.341C371.472 177.329 371.463 177.311 371.451 177.286C371.428 177.238 371.393 177.164 371.35 177.069C371.264 176.878 371.144 176.599 371.013 176.252C370.749 175.558 370.439 174.599 370.252 173.538C369.875 171.389 370.02 168.966 371.842 167.347L371.178 166.599ZM384.052 163.174C381.612 163.018 378.741 163.576 376.338 164.304C375.131 164.67 374.029 165.082 373.143 165.478C372.273 165.866 371.563 166.259 371.179 166.598L371.841 167.348C372.102 167.117 372.69 166.775 373.55 166.391C374.394 166.014 375.456 165.616 376.627 165.261C378.979 164.549 381.718 164.027 383.988 164.172L384.052 163.174ZM388.802 161.047C386.923 162.422 385.709 163.286 384.054 163.174L383.986 164.172C386.069 164.313 387.582 163.179 389.392 161.853L388.802 161.047ZM389.417 160.598C389.205 160.751 389 160.901 388.802 161.047L389.392 161.853C389.591 161.708 389.794 161.559 390.003 161.408L389.417 160.598ZM393.666 159.55C393.222 159.412 392.692 159.242 391.986 159.35C391.294 159.457 390.488 159.82 389.416 160.598L390.004 161.408C391.015 160.673 391.67 160.411 392.138 160.339C392.594 160.268 392.926 160.367 393.369 160.505L393.666 159.55ZM396.692 159.123C395.84 159.585 395.259 159.731 394.825 159.752C394.392 159.773 394.062 159.674 393.666 159.55L393.369 160.505C393.764 160.628 394.245 160.782 394.873 160.751C395.5 160.721 396.229 160.512 397.168 160.002L396.692 159.123ZM398.357 157.34C398.31 157.662 398.278 157.85 398.109 158.078C397.924 158.328 397.543 158.66 396.691 159.124L397.169 160.002C398.065 159.514 398.597 159.098 398.912 158.673C399.243 158.227 399.298 157.815 399.346 157.484L398.357 157.34ZM398.365 157.28C398.362 157.301 398.359 157.321 398.357 157.34L399.346 157.484C399.349 157.464 399.352 157.445 399.355 157.426L398.365 157.28ZM397.015 156.588C396.993 156.596 397.064 156.577 397.267 156.63C397.442 156.676 397.648 156.758 397.841 156.864C398.037 156.971 398.193 157.089 398.288 157.194C398.392 157.309 398.357 157.332 398.366 157.278L399.354 157.428C399.413 157.043 399.214 156.726 399.029 156.523C398.835 156.308 398.577 156.127 398.322 155.987C398.064 155.845 397.781 155.731 397.52 155.663C397.286 155.601 396.972 155.55 396.705 155.638L397.015 156.588ZM388.359 159.487L397.019 156.587L396.701 155.639L388.041 158.539L388.359 159.487ZM362.672 162.736C364.112 163.119 366.454 163.084 369.083 162.848C371.736 162.609 374.758 162.157 377.603 161.662C380.45 161.166 383.127 160.626 385.091 160.209C386.074 160.001 386.879 159.824 387.438 159.699C387.718 159.636 387.937 159.586 388.085 159.552C388.16 159.535 388.217 159.522 388.255 159.513C388.274 159.509 388.289 159.506 388.299 159.503C388.303 159.502 388.307 159.501 388.31 159.501C388.311 159.5 388.312 159.5 388.313 159.5C388.313 159.5 388.314 159.5 388.2 159.013C388.086 158.526 388.086 158.526 388.086 158.526C388.085 158.526 388.084 158.526 388.083 158.527C388.081 158.527 388.077 158.528 388.072 158.529C388.063 158.531 388.049 158.535 388.03 158.539C387.992 158.548 387.936 158.561 387.862 158.578C387.715 158.611 387.498 158.661 387.22 158.723C386.664 158.847 385.863 159.024 384.884 159.231C382.927 159.646 380.263 160.184 377.432 160.677C374.599 161.17 371.608 161.617 368.994 161.852C366.356 162.089 364.178 162.102 362.928 161.77L362.672 162.736ZM362.515 162.695C362.567 162.709 362.619 162.722 362.672 162.736L362.928 161.77C362.874 161.756 362.822 161.742 362.77 161.728L362.515 162.695ZM357.207 159.846C358.102 160.791 358.856 161.363 359.695 161.771C360.519 162.171 361.406 162.403 362.515 162.695L362.77 161.728C361.636 161.429 360.851 161.22 360.132 160.871C359.428 160.529 358.768 160.041 357.933 159.159L357.207 159.846ZM354.793 152.901C354.689 153.888 354.837 155.136 355.23 156.368C355.623 157.603 356.273 158.86 357.207 159.846L357.933 159.159C357.127 158.306 356.542 157.193 356.183 156.065C355.823 154.935 355.701 153.828 355.787 153.005L354.793 152.901ZM354.936 149.823C354.928 150.663 354.919 151.67 354.793 152.901L355.787 153.005C355.919 151.724 355.928 150.674 355.936 149.832L354.936 149.823ZM356.65 146.059C356.263 146.19 355.94 146.367 355.683 146.613C355.422 146.862 355.255 147.157 355.147 147.487C354.945 148.108 354.944 148.91 354.936 149.823L355.936 149.832C355.944 148.854 355.955 148.236 356.098 147.797C356.164 147.596 356.252 147.452 356.374 147.336C356.498 147.217 356.682 147.104 356.97 147.006L356.65 146.059ZM358.438 142.403C359.092 142.378 359.555 142.422 359.869 142.501C360.188 142.582 360.297 142.685 360.331 142.733C360.353 142.765 360.38 142.825 360.341 142.972C360.299 143.129 360.191 143.337 360.003 143.586C359.629 144.08 359.024 144.623 358.377 145.089C357.727 145.556 357.083 145.912 356.649 146.06L356.971 147.006C357.537 146.814 358.273 146.396 358.961 145.9C359.652 145.403 360.343 144.793 360.8 144.19C361.027 143.89 361.219 143.563 361.307 143.229C361.399 142.886 361.388 142.499 361.15 142.16C360.924 141.836 360.552 141.642 360.115 141.532C359.673 141.42 359.105 141.377 358.402 141.403L358.438 142.403Z" fill="#B42025"/>
<path d="M261.033 175.433L296 169.527C296 169.527 295.266 168.897 295.321 166.816C295.321 166.621 295.201 166.478 295.091 166.569C294.697 166.894 289.418 159.121 287.513 158.497C286.954 158.315 286.374 158.523 285.98 159.082C284.808 160.747 282.015 163.427 278.774 165.313C275.204 167.394 264.493 173.351 261 175.303" fill="#B42025"/>
<path d="M261.033 175.433L296 169.527C296 169.527 295.266 168.897 295.321 166.816C295.321 166.621 295.201 166.478 295.091 166.569C294.697 166.894 289.418 159.121 287.513 158.497C286.954 158.315 286.374 158.523 285.98 159.082C284.808 160.747 282.015 163.427 278.774 165.313C275.204 167.394 264.493 173.351 261 175.303" stroke="#B42025" stroke-miterlimit="10"/>
</g>
<path fill-rule="evenodd" clip-rule="evenodd" d="M32.7391 110.186L31 227.609L44.595 248.433H78.0732L91 228.001V201.162H73.757L73.4612 222.479L48.3745 222.908L47.9257 99.8999L36.9585 110.94L32.7391 110.186ZM53.9891 93.7961L77.1981 70.4326H82.5538L91 90.991V117.033H74.7539L74.0966 93.7961H53.9891Z" fill="black"/>
</g>
<path d="M356.5 150.433L359 153.433C561.202 -59.5667 -133.676 -74.0674 31.0001 258.933C31.3951 259.731 33.9525 258.509 33.5001 257.433C-89 -34.0674 509.5 -25.0674 356.5 150.433Z" fill="#B42025"/>
<defs>
<clipPath id="clip0_88_142">
<rect width="422" height="208" fill="white" transform="translate(0 40.4326)"/>
</clipPath>
</defs>
</svg>
