<svg width="370" height="291" viewBox="0 0 370 291" fill="none" xmlns="http://www.w3.org/2000/svg">
<path fill-rule="evenodd" clip-rule="evenodd" d="M8.36075 178.919C8.66168 181.048 8.45651 183.397 7.44428 185.104C5.46088 188.439 6.85611 197.473 8.04615 203.297C8.66169 206.304 7.9504 209.435 6.29528 211.643C3.62795 215.197 3.14919 219.675 5.35145 230.729C7.33486 240.625 16.3217 241.517 21.6974 241.126C23.7629 240.969 25.7737 240.171 27.6203 238.699C39.808 228.913 85.0159 224.404 90.6789 223.871C91.0892 223.84 91.4722 223.731 91.8689 223.59C120.444 212.739 131.852 221.538 134.861 224.764C135.394 225.328 135.818 226.032 136.174 226.799L155.105 268.01C155.981 269.936 157.403 271.298 159.045 271.815L214.402 289.273C215.715 289.68 217.097 289.523 218.342 288.819L244.851 273.756C244.887 273.733 244.923 273.712 244.958 273.69C245.068 273.623 245.174 273.557 245.289 273.474C247.122 272.19 259.788 262.921 258.571 253.668C258.105 250.192 258.133 246.966 258.352 244.242C258.666 240.327 260.964 236.898 263.919 236.617C272.126 235.834 271.976 217.107 266.791 192.744C260.869 164.905 307.636 162.071 307.636 162.071C316.046 161.916 318.32 159.44 321.525 155.949C322.835 154.523 324.3 152.928 326.403 151.252C333.653 145.474 338.919 147.792 338.919 147.792C350.436 149.06 354.061 145.475 357.029 142.327C373.54 124.775 363.267 111.153 358.794 106.644C357.659 105.501 356.865 103.873 356.537 102.041C354.704 92.0199 352.392 88.8101 350.683 87.9333C348.836 86.9782 347.536 84.6922 346.921 82.1713C345.95 78.1787 344.842 75.1881 343.734 72.9335C340.109 65.6371 331.341 69.6767 332.148 78.3666C332.203 78.9459 332.271 79.2904 332.271 79.2904C332.491 95.4043 331.003 96.382 329.801 97.1719C329.357 97.4634 328.953 97.7293 328.687 98.7213C328.222 100.428 328.482 103.669 328.879 106.644C329.453 110.918 327.497 115.021 324.365 116.226C318.524 118.481 307.239 121.08 286.516 120.783C259.679 120.391 235.782 116.305 225.427 114.269C222.158 113.627 219.792 109.76 220.038 105.376C220.421 98.2672 221.953 88.3717 227.233 85.2402C235.796 80.1515 234.811 69.3166 234.811 69.3166C235.139 50.9347 224.579 49.3533 224.579 49.3533C224.579 49.3533 224.593 56.18 223.608 40.4285C223.006 30.8462 219.846 27.0884 217.466 25.6166C215.688 24.5206 214.443 22.3129 214.074 19.745C212.747 10.4289 210.408 1.08133 202.871 4.21282C196.62 6.81196 197.249 18.2263 198.179 24.7398C198.521 27.198 198.043 29.6875 196.852 31.6291C192.954 37.9703 194.24 52.1873 195.047 58.4816C195.279 60.2979 195.061 62.1768 194.377 63.7738C191.586 70.35 192.489 78.4762 193.446 83.3144C193.994 86.0701 193.447 88.998 191.997 91.1117L183.352 103.7C182.982 104.248 182.695 104.843 182.435 105.485C177.784 116.759 154.476 137.082 154.476 137.082C156.297 140.4 84.7437 176.303 53.6401 191.909C45.2577 196.115 39.8132 198.847 39.5344 199.07C38.2212 200.119 33.2833 196.972 33.6115 186.466C33.7894 180.735 31.4366 178.762 29.2481 178.136C27.0048 177.51 25.2949 175.177 24.6247 172.249C22.9012 164.671 19.632 156.779 12.8747 159.676C6.99289 162.197 7.48532 172.609 8.36075 178.919ZM220.954 69.0033C212.843 69.3635 197.222 72.0722 198.371 78.0534C199.342 83.0951 200.847 95.6837 192.27 112.265C183.639 128.971 180.37 150.313 180.37 150.313L199.055 214.477C199.055 214.477 242.854 234.832 255.165 231.199C267.475 227.566 263.823 211.565 263.823 211.565C263.823 211.565 251.677 183.553 265.41 169.195C269.787 164.608 291.933 154.791 307.951 155.996C314.371 156.48 319.038 152.455 325.379 146.986C326.008 146.443 326.654 145.886 327.319 145.318C334.401 139.281 337.245 140.322 340.264 141.426C342.953 142.41 345.782 143.445 351.873 139.572C357.828 135.791 358.099 133.6 358.422 130.987C358.432 130.905 358.442 130.823 358.452 130.741C358.794 128.079 353.309 125.12 351.654 125.777L322.217 137.38C322.217 137.38 254.111 156.028 235.837 150.313C235.631 150.248 235.429 150.185 235.229 150.123C227.64 147.75 223.905 146.583 218.054 139.321C212.132 131.962 209.642 120.375 210.285 113.142C210.727 108.141 210.761 104.042 210.789 100.687C210.852 93.1285 210.884 89.3431 215.469 87.5105C222.295 84.7861 239.407 68.1892 220.954 69.0033Z" fill="#B42025"/>
<path d="M7.44428 185.104L7.87403 185.359L7.87433 185.359L7.44428 185.104ZM8.36075 178.919L7.86549 178.988L7.86567 178.989L8.36075 178.919ZM8.04615 203.297L7.55627 203.398L7.55631 203.398L8.04615 203.297ZM6.29528 211.643L6.69519 211.943L6.69534 211.943L6.29528 211.643ZM5.35145 230.729L4.86109 230.827L4.8612 230.828L5.35145 230.729ZM21.6974 241.126L21.7337 241.625L21.7352 241.625L21.6974 241.126ZM27.6203 238.699L27.9319 239.09L27.9333 239.089L27.6203 238.699ZM90.6789 223.871L90.6408 223.373L90.6321 223.374L90.6789 223.871ZM91.8689 223.59L92.0363 224.061L92.0464 224.057L91.8689 223.59ZM134.861 224.764L134.495 225.105L134.498 225.108L134.861 224.764ZM136.174 226.799L136.628 226.591L136.628 226.589L136.174 226.799ZM155.105 268.01L155.56 267.803L155.56 267.801L155.105 268.01ZM159.045 271.815L159.195 271.338L159.195 271.338L159.045 271.815ZM214.402 289.273L214.252 289.75L214.254 289.75L214.402 289.273ZM218.342 288.819L218.588 289.254L218.589 289.253L218.342 288.819ZM244.851 273.756L245.098 274.191L245.107 274.186L245.116 274.18L244.851 273.756ZM244.958 273.69L244.696 273.264L244.696 273.264L244.958 273.69ZM245.289 273.474L245.002 273.065L244.994 273.07L245.289 273.474ZM258.571 253.668L259.066 253.602L259.066 253.601L258.571 253.668ZM258.352 244.242L257.853 244.202L257.853 244.202L258.352 244.242ZM263.919 236.617L263.966 237.114L263.966 237.114L263.919 236.617ZM266.791 192.744L266.302 192.848L266.302 192.848L266.791 192.744ZM307.636 162.071L307.627 161.571L307.616 161.572L307.606 161.572L307.636 162.071ZM321.525 155.949L321.157 155.611L321.157 155.611L321.525 155.949ZM326.403 151.252L326.091 150.861L326.091 150.861L326.403 151.252ZM338.919 147.792L338.718 148.249L338.788 148.28L338.864 148.289L338.919 147.792ZM357.029 142.327L357.393 142.67L357.394 142.67L357.029 142.327ZM358.794 106.644L359.149 106.292L359.149 106.292L358.794 106.644ZM356.537 102.041L357.029 101.952L357.029 101.951L356.537 102.041ZM350.683 87.9333L350.453 88.3774L350.454 88.3782L350.683 87.9333ZM346.921 82.1713L346.435 82.2895L346.435 82.29L346.921 82.1713ZM343.734 72.9335L344.183 72.7129L344.182 72.711L343.734 72.9335ZM332.148 78.3666L331.65 78.4128L331.65 78.4136L332.148 78.3666ZM332.271 79.2904L332.771 79.2836L332.77 79.2379L332.762 79.193L332.271 79.2904ZM329.801 97.1719L330.076 97.5897L330.076 97.5897L329.801 97.1719ZM328.687 98.7213L329.17 98.8528L329.17 98.8506L328.687 98.7213ZM328.879 106.644L328.383 106.71L328.383 106.711L328.879 106.644ZM324.365 116.226L324.185 115.76L324.185 115.76L324.365 116.226ZM286.516 120.783L286.509 121.283L286.509 121.283L286.516 120.783ZM225.427 114.269L225.524 113.779L225.524 113.779L225.427 114.269ZM220.038 105.376L220.537 105.404L220.537 105.403L220.038 105.376ZM227.233 85.2402L227.488 85.6702L227.488 85.67L227.233 85.2402ZM234.811 69.3166L234.311 69.3077L234.31 69.3348L234.313 69.3618L234.811 69.3166ZM224.579 49.3533L224.653 48.8588L224.078 48.7727L224.079 49.3543L224.579 49.3533ZM223.608 40.4285L224.107 40.3973L224.107 40.3972L223.608 40.4285ZM217.466 25.6166L217.729 25.1913L217.729 25.191L217.466 25.6166ZM214.074 19.745L213.579 19.8155L213.579 19.8162L214.074 19.745ZM202.871 4.21282L202.679 3.75109L202.679 3.75114L202.871 4.21282ZM198.179 24.7398L198.675 24.6709L198.674 24.6691L198.179 24.7398ZM196.852 31.6291L197.278 31.8909L197.279 31.8903L196.852 31.6291ZM195.047 58.4816L195.543 58.4181L195.543 58.418L195.047 58.4816ZM194.377 63.7738L193.917 63.577L193.916 63.5785L194.377 63.7738ZM193.446 83.3144L192.956 83.4114L192.956 83.4117L193.446 83.3144ZM191.997 91.1117L192.409 91.3948L192.409 91.3946L191.997 91.1117ZM183.352 103.7L182.939 103.417L182.937 103.421L183.352 103.7ZM182.435 105.485L182.897 105.676L182.899 105.673L182.435 105.485ZM154.476 137.082L154.147 136.705L153.844 136.97L154.038 137.323L154.476 137.082ZM53.6401 191.909L53.4159 191.463L53.4159 191.463L53.6401 191.909ZM39.5344 199.07L39.8465 199.461L39.8465 199.461L39.5344 199.07ZM33.6115 186.466L34.1113 186.481L34.1113 186.481L33.6115 186.466ZM29.2481 178.136L29.3856 177.655L29.3825 177.654L29.2481 178.136ZM24.6247 172.249L24.1371 172.36L24.1373 172.36L24.6247 172.249ZM12.8747 159.676L13.0717 160.135L13.0717 160.135L12.8747 159.676ZM198.371 78.0534L197.88 78.1477L197.88 78.1479L198.371 78.0534ZM220.954 69.0033L220.932 68.5038L220.932 68.5038L220.954 69.0033ZM192.27 112.265L191.826 112.035L191.826 112.035L192.27 112.265ZM180.37 150.313L179.876 150.237L179.859 150.346L179.89 150.452L180.37 150.313ZM199.055 214.477L198.575 214.617L198.638 214.835L198.844 214.93L199.055 214.477ZM255.165 231.199L255.306 231.679L255.306 231.679L255.165 231.199ZM263.823 211.565L264.311 211.453L264.3 211.408L264.282 211.366L263.823 211.565ZM265.41 169.195L265.771 169.541L265.772 169.541L265.41 169.195ZM307.951 155.996L307.988 155.498L307.988 155.498L307.951 155.996ZM325.379 146.986L325.705 147.365L325.705 147.365L325.379 146.986ZM327.319 145.318L326.995 144.937L326.995 144.938L327.319 145.318ZM340.264 141.426L340.092 141.895L340.092 141.895L340.264 141.426ZM351.873 139.572L351.605 139.149L351.604 139.15L351.873 139.572ZM358.422 130.987L357.925 130.926L357.925 130.926L358.422 130.987ZM358.452 130.741L357.956 130.677L357.956 130.678L358.452 130.741ZM351.654 125.777L351.837 126.242L351.838 126.242L351.654 125.777ZM322.217 137.38L322.349 137.862L322.376 137.855L322.401 137.845L322.217 137.38ZM235.837 150.313L235.687 150.79L235.687 150.79L235.837 150.313ZM235.229 150.123L235.379 149.645L235.379 149.645L235.229 150.123ZM218.054 139.321L217.665 139.635L217.665 139.635L218.054 139.321ZM210.285 113.142L210.783 113.186L210.783 113.186L210.285 113.142ZM210.789 100.687L211.289 100.691L211.289 100.691L210.789 100.687ZM215.469 87.5105L215.284 87.0461L215.284 87.0462L215.469 87.5105ZM7.87433 185.359C8.96632 183.517 9.16545 181.04 8.85583 178.849L7.86567 178.989C8.15792 181.057 7.94669 183.276 7.01423 184.848L7.87433 185.359ZM8.53603 203.197C7.94274 200.294 7.30119 196.603 7.05383 193.23C6.93013 191.544 6.90604 189.95 7.03212 188.58C7.15916 187.2 7.43468 186.098 7.87403 185.359L7.01454 184.848C6.46218 185.777 6.16833 187.054 6.03633 188.488C5.90337 189.933 5.93058 191.586 6.05651 193.303C6.30843 196.738 6.95952 200.477 7.55627 203.398L8.53603 203.197ZM6.69534 211.943C8.4403 209.615 9.17883 206.337 8.53598 203.197L7.55631 203.398C8.14455 206.271 7.4605 209.255 5.89522 211.343L6.69534 211.943ZM5.84182 230.632C3.63989 219.579 4.17139 215.306 6.69519 211.943L5.89537 211.343C3.0845 215.088 2.65849 219.771 4.86109 230.827L5.84182 230.632ZM21.6611 240.627C19.0083 240.82 15.5134 240.691 12.4558 239.329C9.42864 237.98 6.79975 235.411 5.8417 230.631L4.8612 230.828C5.88656 235.943 8.74281 238.769 12.0488 240.242C15.3244 241.702 19.0108 241.823 21.7337 241.625L21.6611 240.627ZM27.3087 238.308C25.5339 239.723 23.617 240.479 21.6596 240.627L21.7352 241.625C23.9088 241.46 26.0135 240.619 27.9319 239.09L27.3087 238.308ZM90.6321 223.374C87.7954 223.64 75.0618 224.902 61.5084 227.323C54.7323 228.533 47.7412 230.035 41.6752 231.85C35.626 233.659 30.4347 235.798 27.3072 238.309L27.9333 239.089C30.8997 236.707 35.9298 234.612 41.9618 232.808C47.977 231.008 54.927 229.514 61.6843 228.307C75.1975 225.894 87.8994 224.635 90.7257 224.369L90.6321 223.374ZM91.7015 223.118C91.3214 223.253 90.9866 223.346 90.6408 223.373L90.7169 224.37C91.1918 224.334 91.6231 224.208 92.0363 224.061L91.7015 223.118ZM135.226 224.423C133.658 222.742 129.96 219.675 123.042 218.406C116.13 217.139 106.04 217.674 91.6914 223.122L92.0464 224.057C106.273 218.655 116.174 218.164 122.862 219.39C129.544 220.615 133.055 223.561 134.495 225.105L135.226 224.423ZM136.628 226.589C136.259 225.794 135.808 225.037 135.224 224.42L134.498 225.108C134.981 225.618 135.378 226.271 135.72 227.01L136.628 226.589ZM155.56 267.801L136.628 226.591L135.72 227.008L154.651 268.219L155.56 267.801ZM159.195 271.338C157.717 270.872 156.391 269.629 155.56 267.803L154.65 268.217C155.571 270.242 157.09 271.723 158.895 272.291L159.195 271.338ZM214.553 288.796L159.195 271.338L158.894 272.291L214.252 289.75L214.553 288.796ZM218.095 288.383C216.966 289.023 215.727 289.16 214.55 288.795L214.254 289.75C215.704 290.2 217.228 290.024 218.588 289.254L218.095 288.383ZM244.604 273.321L218.095 288.384L218.589 289.253L245.098 274.191L244.604 273.321ZM244.696 273.264C244.662 273.285 244.624 273.308 244.586 273.332L245.116 274.18C245.15 274.159 245.183 274.138 245.219 274.117L244.696 273.264ZM244.994 273.07C244.898 273.14 244.808 273.195 244.696 273.264L245.219 274.117C245.328 274.05 245.45 273.975 245.583 273.878L244.994 273.07ZM258.075 253.733C258.653 258.126 255.93 262.608 252.7 266.227C249.494 269.819 245.905 272.432 245.002 273.065L245.575 273.884C246.505 273.233 250.166 270.569 253.446 266.892C256.704 263.242 259.706 258.462 259.066 253.602L258.075 253.733ZM257.853 244.202C257.632 246.954 257.604 250.216 258.075 253.734L259.066 253.601C258.607 250.168 258.633 246.979 258.85 244.282L257.853 244.202ZM263.871 236.119C262.207 236.278 260.777 237.317 259.738 238.777C258.697 240.24 258.017 242.164 257.853 244.202L258.85 244.282C259.001 242.405 259.627 240.658 260.553 239.357C261.48 238.053 262.676 237.237 263.966 237.114L263.871 236.119ZM266.302 192.848C268.891 205.015 270.215 215.739 269.877 223.501C269.708 227.387 269.124 230.486 268.107 232.644C267.097 234.787 265.694 235.945 263.871 236.119L263.966 237.114C266.248 236.897 267.904 235.42 269.011 233.071C270.112 230.736 270.705 227.484 270.876 223.545C271.219 215.658 269.876 204.837 267.28 192.64L266.302 192.848ZM307.636 162.071C307.606 161.572 307.605 161.572 307.605 161.572C307.604 161.572 307.604 161.572 307.603 161.572C307.601 161.573 307.599 161.573 307.596 161.573C307.59 161.573 307.581 161.574 307.569 161.575C307.546 161.576 307.512 161.578 307.467 161.582C307.377 161.588 307.244 161.598 307.072 161.612C306.727 161.639 306.224 161.684 305.586 161.75C304.311 161.883 302.497 162.104 300.34 162.456C296.029 163.16 290.333 164.391 284.814 166.501C279.302 168.609 273.923 171.611 270.294 175.883C266.645 180.178 264.788 185.732 266.302 192.848L267.28 192.64C265.833 185.837 267.601 180.597 271.056 176.531C274.53 172.442 279.731 169.516 285.171 167.435C290.604 165.358 296.229 164.14 300.502 163.443C302.637 163.094 304.43 162.876 305.69 162.745C306.319 162.679 306.815 162.636 307.152 162.608C307.321 162.595 307.45 162.585 307.537 162.579C307.58 162.576 307.613 162.574 307.635 162.572C307.645 162.572 307.654 162.571 307.659 162.571C307.661 162.571 307.663 162.571 307.665 162.571C307.665 162.571 307.666 162.571 307.666 162.57C307.666 162.57 307.666 162.57 307.636 162.071ZM321.157 155.611C319.547 157.365 318.231 158.791 316.297 159.82C314.37 160.845 311.785 161.495 307.627 161.571L307.645 162.571C311.896 162.493 314.653 161.827 316.767 160.702C318.874 159.581 320.298 158.025 321.894 156.288L321.157 155.611ZM326.091 150.861C323.955 152.563 322.467 154.184 321.157 155.611L321.894 156.288C323.203 154.862 324.645 153.292 326.715 151.643L326.091 150.861ZM338.919 147.792C339.12 147.334 339.12 147.334 339.12 147.334C339.119 147.334 339.119 147.334 339.119 147.333C339.118 147.333 339.118 147.333 339.117 147.333C339.115 147.332 339.113 147.331 339.111 147.33C339.107 147.328 339.101 147.326 339.095 147.323C339.081 147.318 339.062 147.31 339.038 147.301C338.99 147.282 338.922 147.257 338.835 147.229C338.66 147.171 338.408 147.098 338.085 147.031C337.439 146.895 336.509 146.782 335.347 146.856C333.018 147.006 329.793 147.911 326.091 150.861L326.715 151.643C330.263 148.815 333.295 147.99 335.412 147.854C336.473 147.786 337.313 147.891 337.88 148.009C338.164 148.069 338.38 148.132 338.522 148.178C338.593 148.202 338.645 148.221 338.678 148.234C338.694 148.24 338.706 148.245 338.713 148.247C338.716 148.249 338.718 148.25 338.719 148.25C338.719 148.25 338.719 148.25 338.719 148.25C338.719 148.25 338.719 148.25 338.719 148.25C338.718 148.25 338.718 148.25 338.718 148.25C338.718 148.25 338.718 148.249 338.919 147.792ZM356.666 141.984C355.188 143.551 353.601 145.166 350.988 146.254C348.372 147.343 344.678 147.923 338.974 147.295L338.864 148.289C344.678 148.929 348.554 148.35 351.372 147.177C354.193 146.002 355.903 144.251 357.393 142.67L356.666 141.984ZM358.439 106.996C360.643 109.218 364.249 113.661 365.288 119.68C366.32 125.664 364.83 133.304 356.665 141.985L357.394 142.67C365.739 133.798 367.367 125.852 366.273 119.51C365.185 113.202 361.418 108.58 359.149 106.292L358.439 106.996ZM356.045 102.129C356.388 104.043 357.221 105.77 358.439 106.996L359.149 106.292C358.097 105.232 357.343 103.702 357.029 101.952L356.045 102.129ZM350.454 88.3782C351.171 88.7455 352.114 89.6556 353.111 91.7713C354.107 93.8816 355.133 97.1425 356.045 102.131L357.029 101.951C356.108 96.918 355.062 93.5637 354.016 91.3447C352.972 89.1311 351.904 87.9979 350.911 87.4884L350.454 88.3782ZM346.435 82.29C347.065 84.8679 348.417 87.3247 350.453 88.3774L350.912 87.4892C349.254 86.6317 348.008 84.5165 347.407 82.0527L346.435 82.29ZM343.285 73.154C344.374 75.3703 345.471 78.3255 346.435 82.2895L347.407 82.0532C346.429 78.0319 345.309 75.006 344.183 72.7129L343.285 73.154ZM332.646 78.3204C332.258 74.1473 334.17 71.1881 336.49 70.1085C337.649 69.5688 338.918 69.4902 340.1 69.9484C341.282 70.4066 342.424 71.4213 343.286 73.1559L344.182 72.711C343.231 70.7974 341.918 69.5809 340.462 69.016C339.005 68.4511 337.453 68.5574 336.068 69.2019C333.299 70.4904 331.231 73.896 331.65 78.4128L332.646 78.3204ZM332.271 79.2904C332.762 79.193 332.762 79.1931 332.762 79.1931C332.762 79.1931 332.762 79.1931 332.762 79.1932C332.762 79.1932 332.762 79.1932 332.762 79.1933C332.762 79.1933 332.762 79.1934 332.762 79.1934C332.762 79.1935 332.762 79.1934 332.762 79.1933C332.762 79.1931 332.761 79.1925 332.761 79.1916C332.761 79.1898 332.76 79.1867 332.759 79.1824C332.758 79.1736 332.755 79.1597 332.752 79.141C332.745 79.1034 332.736 79.0462 332.724 78.9711C332.702 78.8208 332.672 78.5991 332.646 78.3196L331.65 78.4136C331.679 78.7134 331.71 78.9536 331.736 79.1204C331.748 79.2038 331.759 79.2689 331.767 79.3141C331.771 79.3366 331.774 79.3542 331.777 79.3665C331.778 79.3727 331.779 79.3776 331.779 79.3811C331.78 79.3829 331.78 79.3843 331.78 79.3854C331.78 79.386 331.78 79.3865 331.78 79.3869C331.781 79.387 331.781 79.3872 331.781 79.3874C331.781 79.3874 331.781 79.3875 331.781 79.3876C331.781 79.3876 331.781 79.3877 331.781 79.3877C331.781 79.3877 331.781 79.3878 332.271 79.2904ZM330.076 97.5897C330.386 97.386 330.776 97.1315 331.14 96.5893C331.495 96.061 331.804 95.2921 332.059 94.0803C332.566 91.6642 332.881 87.3429 332.771 79.2836L331.771 79.2972C331.881 87.3517 331.562 91.5763 331.08 93.8749C330.839 95.0206 330.565 95.6514 330.31 96.032C330.064 96.3989 329.817 96.5628 329.527 96.754L330.076 97.5897ZM329.17 98.8506C329.289 98.4066 329.429 98.1629 329.561 98.0047C329.697 97.8417 329.85 97.7384 330.076 97.5897L329.527 96.754C329.309 96.8969 329.037 97.0723 328.794 97.3631C328.547 97.6588 328.351 98.0441 328.204 98.592L329.17 98.8506ZM329.374 106.578C329.177 105.098 329.015 103.561 328.959 102.187C328.903 100.8 328.958 99.6278 329.17 98.8528L328.205 98.5898C327.951 99.5215 327.904 100.823 327.96 102.227C328.018 103.644 328.184 105.215 328.383 106.71L329.374 106.578ZM324.544 116.693C327.962 115.377 329.969 110.998 329.374 106.577L328.383 106.711C328.938 110.839 327.032 114.664 324.185 115.76L324.544 116.693ZM286.509 121.283C307.272 121.581 318.626 118.978 324.545 116.693L324.185 115.76C318.422 117.984 307.206 120.58 286.523 120.283L286.509 121.283ZM225.331 114.76C235.7 116.798 259.63 120.891 286.509 121.283L286.523 120.283C259.728 119.892 235.863 115.811 225.524 113.779L225.331 114.76ZM219.539 105.348C219.284 109.874 221.724 114.052 225.331 114.76L225.524 113.779C222.592 113.203 220.299 109.646 220.537 105.404L219.539 105.348ZM226.978 84.8101C224.167 86.4769 222.418 89.893 221.319 93.6771C220.213 97.4833 219.731 101.777 219.539 105.349L220.537 105.403C220.728 101.866 221.203 97.6577 222.279 93.9561C223.361 90.2324 225.018 87.135 227.488 85.6702L226.978 84.8101ZM234.811 69.3166C234.313 69.3618 234.313 69.3617 234.313 69.3616C234.313 69.3616 234.313 69.3615 234.313 69.3615C234.313 69.3616 234.313 69.3618 234.313 69.3622C234.313 69.363 234.313 69.3644 234.313 69.3665C234.314 69.3706 234.314 69.3773 234.315 69.3865C234.316 69.4049 234.318 69.4333 234.321 69.4712C234.326 69.5471 234.332 69.6609 234.337 69.8087C234.346 70.1045 234.351 70.5356 234.331 71.0701C234.291 72.1402 234.149 73.6186 233.747 75.2505C232.943 78.5162 231.105 82.3573 226.977 84.8104L227.488 85.67C231.923 83.0344 233.875 78.9137 234.718 75.4898C235.14 73.7768 235.288 72.2285 235.33 71.108C235.352 70.5472 235.347 70.0921 235.336 69.7754C235.331 69.617 235.324 69.4931 235.319 69.4078C235.316 69.3651 235.314 69.3321 235.312 69.3092C235.311 69.2977 235.31 69.2888 235.31 69.2824C235.309 69.2793 235.309 69.2768 235.309 69.2749C235.309 69.274 235.309 69.2732 235.309 69.2726C235.309 69.2723 235.309 69.272 235.309 69.2718C235.309 69.2716 235.309 69.2713 234.811 69.3166ZM224.579 49.3533C224.505 49.8478 224.505 49.8477 224.504 49.8477C224.504 49.8477 224.504 49.8476 224.504 49.8476C224.504 49.8476 224.504 49.8476 224.504 49.8476C224.504 49.8476 224.505 49.8477 224.506 49.848C224.509 49.8484 224.514 49.8493 224.522 49.8507C224.537 49.8534 224.562 49.8581 224.596 49.8651C224.663 49.8791 224.766 49.9027 224.9 49.9393C225.167 50.0126 225.554 50.1382 226.022 50.3449C226.956 50.7581 228.21 51.4954 229.458 52.789C231.945 55.3657 234.473 60.2172 234.311 69.3077L235.311 69.3255C235.477 60.0341 232.889 54.9039 230.178 52.0945C228.827 50.695 227.461 49.8881 226.426 49.4303C225.909 49.2016 225.474 49.06 225.165 48.975C225.01 48.9325 224.886 48.9041 224.799 48.886C224.756 48.877 224.722 48.8705 224.697 48.8661C224.685 48.864 224.675 48.8623 224.668 48.8611C224.664 48.8605 224.661 48.86 224.658 48.8596C224.657 48.8594 224.656 48.8593 224.655 48.8592C224.655 48.8591 224.654 48.859 224.654 48.859C224.654 48.8589 224.653 48.8588 224.579 49.3533ZM223.109 40.4597C223.355 44.3988 223.539 46.9304 223.677 48.5116C223.746 49.3015 223.804 49.8589 223.852 50.2379C223.876 50.427 223.899 50.5771 223.921 50.6922C223.939 50.7907 223.965 50.9103 224.008 51.0053C224.02 51.0325 224.043 51.0778 224.08 51.1254C224.112 51.166 224.196 51.2617 224.344 51.3048C224.526 51.3579 224.691 51.3006 224.797 51.22C224.883 51.1541 224.927 51.0773 224.945 51.044C224.982 50.9728 224.999 50.9032 225.006 50.8715C225.015 50.8303 225.022 50.7879 225.027 50.7491C225.047 50.5994 225.058 50.3889 225.066 50.1918C225.073 49.9888 225.076 49.7789 225.078 49.6209C225.079 49.5416 225.079 49.4748 225.079 49.4277C225.079 49.4041 225.079 49.3854 225.079 49.3726C225.079 49.3662 225.079 49.3612 225.079 49.3578C225.079 49.3561 225.079 49.3547 225.079 49.3538C225.079 49.3534 225.079 49.353 225.079 49.3528C225.079 49.3526 225.079 49.3525 225.079 49.3525C225.079 49.3524 225.079 49.3523 224.579 49.3533C224.079 49.3543 224.079 49.3543 224.079 49.3543C224.079 49.3544 224.079 49.3544 224.079 49.3545C224.079 49.3547 224.079 49.3549 224.079 49.3553C224.079 49.356 224.079 49.3571 224.079 49.3586C224.079 49.3617 224.079 49.3662 224.079 49.3723C224.079 49.3843 224.079 49.402 224.079 49.4246C224.079 49.4698 224.079 49.5343 224.078 49.6109C224.076 49.7647 224.073 49.9651 224.066 50.156C224.059 50.3527 224.049 50.5197 224.036 50.6162C224.033 50.639 224.031 50.65 224.03 50.6521C224.028 50.6637 224.034 50.6275 224.06 50.5779C224.072 50.5553 224.11 50.4864 224.19 50.4252C224.289 50.3493 224.448 50.2935 224.624 50.3446C224.765 50.3858 224.842 50.4762 224.867 50.5079C224.897 50.5465 224.913 50.5794 224.918 50.5901C224.931 50.6195 224.923 50.612 224.903 50.5076C224.887 50.4196 224.867 50.2909 224.844 50.1109C224.798 49.7517 224.742 49.2098 224.673 48.4248C224.537 46.8559 224.353 44.334 224.107 40.3973L223.109 40.4597ZM217.203 26.0419C219.401 27.4008 222.513 30.9787 223.109 40.4599L224.107 40.3972C223.499 30.7136 220.292 26.776 217.729 25.1913L217.203 26.0419ZM213.579 19.8162C213.963 22.4847 215.264 24.8469 217.204 26.0422L217.729 25.191C216.112 24.1943 214.924 22.1411 214.569 19.6739L213.579 19.8162ZM203.063 4.67455C204.853 3.93091 206.265 3.95262 207.41 4.46495C208.572 4.98448 209.544 6.04613 210.362 7.55009C212.006 10.5708 212.915 15.1513 213.579 19.8155L214.569 19.6745C213.906 15.0226 212.982 10.2713 211.24 7.07202C210.366 5.46601 209.257 4.19566 207.819 3.55213C206.364 2.90141 204.658 2.92899 202.679 3.75109L203.063 4.67455ZM198.674 24.6691C198.211 21.428 197.829 16.9981 198.328 13.0715C198.832 9.10925 200.205 5.8628 203.063 4.6745L202.679 3.75114C199.286 5.16197 197.848 8.92226 197.336 12.9453C196.82 17.0041 197.217 21.538 197.684 24.8105L198.674 24.6691ZM197.279 31.8903C198.535 29.8408 199.031 27.2326 198.675 24.6709L197.684 24.8087C198.012 27.1634 197.55 29.5342 196.426 31.3678L197.279 31.8903ZM195.543 58.418C195.141 55.2813 194.621 50.1795 194.685 45.0793C194.75 39.9495 195.407 34.9346 197.278 31.8909L196.427 31.3672C194.399 34.6648 193.75 39.929 193.685 45.0666C193.62 50.2337 194.146 55.3876 194.551 58.5452L195.543 58.418ZM194.836 63.9707C195.559 62.2822 195.785 60.3121 195.543 58.4181L194.551 58.5451C194.774 60.2837 194.562 62.0713 193.917 63.577L194.836 63.9707ZM193.937 83.2173C192.983 78.3962 192.109 70.3985 194.837 63.9691L193.916 63.5785C191.064 70.3014 191.995 78.5562 192.956 83.4114L193.937 83.2173ZM192.409 91.3946C193.942 89.159 194.508 86.0914 193.937 83.217L192.956 83.4117C193.48 86.0488 192.951 88.837 191.584 90.8289L192.409 91.3946ZM183.764 103.983L192.409 91.3948L191.584 90.8287L182.939 103.417L183.764 103.983ZM182.899 105.673C183.151 105.049 183.423 104.489 183.766 103.98L182.937 103.421C182.541 104.008 182.239 104.638 181.972 105.298L182.899 105.673ZM154.476 137.082C154.805 137.459 154.805 137.459 154.805 137.459C154.805 137.459 154.805 137.458 154.806 137.458C154.807 137.457 154.808 137.456 154.809 137.455C154.812 137.452 154.816 137.449 154.822 137.444C154.833 137.434 154.85 137.419 154.873 137.399C154.917 137.36 154.983 137.302 155.07 137.226C155.242 137.074 155.496 136.849 155.82 136.56C156.468 135.98 157.399 135.141 158.53 134.098C160.791 132.013 163.856 129.115 167.067 125.863C170.278 122.611 173.639 119.001 176.492 115.494C179.339 111.994 181.706 108.564 182.897 105.676L181.973 105.295C180.839 108.043 178.549 111.381 175.717 114.863C172.891 118.336 169.554 121.921 166.356 125.16C163.159 128.398 160.106 131.285 157.852 133.363C156.725 134.402 155.798 135.238 155.153 135.814C154.831 136.102 154.579 136.325 154.408 136.476C154.323 136.552 154.257 136.609 154.213 136.648C154.191 136.667 154.175 136.681 154.164 136.691C154.158 136.696 154.154 136.699 154.151 136.702C154.15 136.703 154.149 136.704 154.148 136.704C154.148 136.705 154.148 136.705 154.148 136.705C154.148 136.705 154.147 136.705 154.476 137.082ZM53.8643 192.356C69.4154 184.553 95.084 171.674 116.638 160.33C127.413 154.658 137.167 149.367 144.116 145.285C147.588 143.245 150.372 141.5 152.234 140.156C153.162 139.486 153.882 138.902 154.346 138.42C154.575 138.181 154.766 137.943 154.882 137.711C154.993 137.489 155.089 137.16 154.914 136.842L154.038 137.323C153.977 137.212 154.043 137.153 153.988 137.263C153.938 137.363 153.827 137.516 153.625 137.727C153.225 138.142 152.564 138.685 151.649 139.345C149.826 140.66 147.075 142.386 143.609 144.423C136.682 148.493 126.945 153.775 116.172 159.445C94.6283 170.784 68.9685 183.659 53.4159 191.463L53.8643 192.356ZM39.8465 199.461C39.8302 199.474 39.8352 199.468 39.8979 199.431C39.9491 199.402 40.0212 199.361 40.1153 199.31C40.3031 199.208 40.5681 199.069 40.9075 198.892C41.5858 198.541 42.5525 198.048 43.7741 197.43C46.217 196.193 49.6728 194.459 53.8643 192.356L53.4159 191.463C49.225 193.565 45.7674 195.3 43.3226 196.537C42.1005 197.156 41.1299 197.65 40.447 198.005C40.1058 198.182 39.8342 198.325 39.6381 198.431C39.5403 198.485 39.4587 198.53 39.3954 198.567C39.3437 198.597 39.2735 198.638 39.2223 198.679L39.8465 199.461ZM33.1118 186.45C32.9453 191.778 34.1119 195.305 35.5458 197.385C36.2607 198.422 37.0522 199.112 37.7906 199.47C38.5008 199.815 39.2936 199.902 39.8465 199.461L39.2223 198.679C39.1186 198.762 38.8017 198.85 38.227 198.571C37.6805 198.306 37.0118 197.749 36.3691 196.817C35.0877 194.959 33.9495 191.659 34.1113 186.481L33.1118 186.45ZM29.1105 178.617C30.1119 178.903 31.1364 179.491 31.8983 180.66C32.6652 181.836 33.1986 183.651 33.1118 186.45L34.1113 186.481C34.2023 183.549 33.6482 181.513 32.7361 180.114C31.8189 178.707 30.5728 177.995 29.3856 177.655L29.1105 178.617ZM24.1373 172.36C24.8286 175.38 26.6221 177.922 29.1136 178.618L29.3825 177.654C27.3874 177.097 25.7612 174.973 25.1121 172.137L24.1373 172.36ZM13.0717 160.135C14.666 159.452 16.0069 159.422 17.1533 159.824C18.3111 160.231 19.3324 161.101 20.2342 162.33C22.0471 164.8 23.2777 168.581 24.1371 172.36L25.1122 172.138C24.2481 168.338 22.9824 164.384 21.0404 161.738C20.0649 160.409 18.8941 159.376 17.4847 158.881C16.0638 158.382 14.4621 158.451 12.6777 159.216L13.0717 160.135ZM8.85601 178.85C8.42041 175.71 8.08568 171.583 8.57923 167.944C9.07672 164.275 10.3875 161.286 13.0717 160.135L12.6777 159.216C9.48012 160.587 8.09619 164.064 7.5883 167.809C7.07646 171.584 7.42565 175.817 7.86549 178.988L8.85601 178.85ZM198.862 77.959C198.625 76.7279 199.223 75.6069 200.579 74.5628C201.939 73.5162 203.97 72.6268 206.337 71.8983C211.061 70.4444 216.95 69.6816 220.977 69.5029L220.932 68.5038C216.848 68.6852 210.87 69.4568 206.043 70.9426C203.634 71.6839 201.469 72.6158 199.969 73.7705C198.466 74.9277 197.542 76.3883 197.88 78.1477L198.862 77.959ZM192.714 112.495C201.356 95.7869 199.848 83.0771 198.862 77.9588L197.88 78.1479C198.836 83.113 200.337 95.5804 191.826 112.035L192.714 112.495ZM180.37 150.313C180.864 150.388 180.864 150.388 180.864 150.388C180.864 150.388 180.864 150.388 180.864 150.388C180.864 150.387 180.864 150.386 180.865 150.385C180.865 150.382 180.865 150.379 180.866 150.374C180.868 150.364 180.87 150.349 180.873 150.329C180.88 150.289 180.889 150.228 180.902 150.149C180.928 149.99 180.967 149.754 181.02 149.448C181.126 148.835 181.286 147.94 181.506 146.813C181.946 144.559 182.622 141.378 183.568 137.677C185.46 130.271 188.424 120.8 192.714 112.494L191.826 112.035C187.486 120.437 184.499 129.99 182.599 137.43C181.648 141.153 180.968 144.352 180.525 146.621C180.303 147.756 180.141 148.658 180.034 149.278C179.981 149.588 179.941 149.827 179.915 149.989C179.902 150.07 179.892 150.131 179.886 150.173C179.882 150.194 179.88 150.21 179.878 150.22C179.877 150.226 179.877 150.23 179.876 150.232C179.876 150.234 179.876 150.235 179.876 150.236C179.876 150.236 179.876 150.236 179.876 150.236C179.876 150.237 179.876 150.237 180.37 150.313ZM199.535 214.337L180.85 150.173L179.89 150.452L198.575 214.617L199.535 214.337ZM255.023 230.719C253.572 231.148 251.614 231.232 249.263 231.025C246.92 230.819 244.225 230.328 241.32 229.632C235.511 228.242 228.903 226.046 222.667 223.731C216.433 221.418 210.582 218.991 206.289 217.141C204.142 216.217 202.386 215.437 201.166 214.888C200.556 214.614 200.081 214.398 199.758 214.25C199.596 214.176 199.473 214.119 199.39 214.081C199.349 214.062 199.318 214.048 199.297 214.038C199.286 214.033 199.278 214.029 199.273 214.027C199.271 214.026 199.269 214.025 199.267 214.024C199.267 214.024 199.266 214.024 199.266 214.024C199.266 214.023 199.266 214.023 199.055 214.477C198.844 214.93 198.844 214.93 198.845 214.931C198.845 214.931 198.846 214.931 198.846 214.931C198.848 214.932 198.85 214.933 198.852 214.934C198.858 214.937 198.866 214.94 198.877 214.945C198.898 214.955 198.93 214.97 198.971 214.989C199.055 215.028 199.179 215.085 199.342 215.159C199.666 215.308 200.144 215.525 200.756 215.8C201.98 216.351 203.741 217.133 205.893 218.06C210.196 219.913 216.064 222.348 222.319 224.669C228.572 226.989 235.222 229.201 241.087 230.605C244.02 231.307 246.767 231.81 249.175 232.021C251.576 232.233 253.679 232.159 255.306 231.679L255.023 230.719ZM263.823 211.565C263.336 211.676 263.336 211.676 263.336 211.676C263.336 211.676 263.336 211.676 263.336 211.676C263.336 211.676 263.336 211.677 263.336 211.677C263.336 211.679 263.337 211.681 263.338 211.684C263.339 211.691 263.341 211.702 263.345 211.716C263.351 211.744 263.36 211.787 263.371 211.844C263.394 211.957 263.426 212.126 263.463 212.343C263.537 212.778 263.63 213.405 263.704 214.17C263.851 215.701 263.921 217.774 263.615 219.95C263.004 224.302 260.916 228.981 255.023 230.719L255.306 231.679C261.724 229.785 263.965 224.647 264.606 220.089C264.926 217.811 264.852 215.656 264.699 214.074C264.623 213.281 264.527 212.63 264.449 212.175C264.41 211.948 264.376 211.769 264.351 211.647C264.339 211.585 264.329 211.538 264.322 211.505C264.319 211.489 264.316 211.477 264.314 211.468C264.313 211.464 264.312 211.46 264.312 211.458C264.311 211.457 264.311 211.456 264.311 211.455C264.311 211.454 264.311 211.454 264.311 211.454C264.311 211.454 264.311 211.453 263.823 211.565ZM265.049 168.85C258.014 176.204 257.646 187.003 258.972 195.838C259.637 200.272 260.734 204.25 261.664 207.118C262.129 208.552 262.553 209.711 262.861 210.512C263.016 210.913 263.141 211.224 263.228 211.436C263.271 211.542 263.305 211.623 263.328 211.678C263.34 211.706 263.349 211.727 263.355 211.741C263.358 211.748 263.36 211.754 263.362 211.757C263.363 211.759 263.363 211.761 263.364 211.762C263.364 211.762 263.364 211.763 263.364 211.763C263.364 211.763 263.365 211.764 263.823 211.565C264.282 211.366 264.282 211.366 264.282 211.366C264.282 211.365 264.282 211.365 264.282 211.365C264.281 211.364 264.281 211.363 264.28 211.362C264.279 211.359 264.277 211.354 264.274 211.347C264.269 211.335 264.26 211.315 264.249 211.289C264.228 211.237 264.195 211.159 264.153 211.057C264.068 210.851 263.946 210.547 263.795 210.153C263.492 209.367 263.075 208.225 262.616 206.809C261.697 203.977 260.616 200.054 259.961 195.69C258.647 186.93 259.072 176.545 265.771 169.541L265.049 168.85ZM307.988 155.498C299.879 154.887 290.262 157.065 282.147 159.952C278.084 161.398 274.383 163.027 271.418 164.586C268.469 166.136 266.202 167.641 265.048 168.85L265.772 169.541C266.806 168.456 268.949 167.013 271.884 165.471C274.803 163.936 278.46 162.326 282.483 160.894C290.54 158.028 300.004 155.9 307.913 156.495L307.988 155.498ZM325.052 146.607C318.665 152.117 314.163 155.963 307.988 155.498L307.913 156.495C314.58 156.998 319.41 152.794 325.705 147.365L325.052 146.607ZM326.995 144.938C326.328 145.507 325.681 146.065 325.052 146.607L325.705 147.365C326.335 146.822 326.98 146.265 327.644 145.698L326.995 144.938ZM340.435 140.956C338.927 140.405 337.346 139.819 335.226 140.202C333.125 140.582 330.563 141.896 326.995 144.937L327.644 145.698C331.158 142.703 333.558 141.52 335.404 141.186C337.231 140.856 338.581 141.343 340.092 141.895L340.435 140.956ZM351.604 139.15C348.603 141.058 346.456 141.725 344.764 141.821C343.074 141.917 341.782 141.449 340.435 140.956L340.092 141.895C341.435 142.387 342.902 142.928 344.821 142.819C346.739 142.71 349.052 141.958 352.141 139.993L351.604 139.15ZM357.925 130.926C357.764 132.232 357.624 133.331 356.837 134.574C356.042 135.831 354.556 137.276 351.605 139.149L352.141 139.994C355.145 138.087 356.772 136.546 357.682 135.109C358.6 133.658 358.756 132.355 358.918 131.048L357.925 130.926ZM357.956 130.678C357.946 130.762 357.935 130.844 357.925 130.926L358.918 131.048C358.928 130.967 358.938 130.885 358.948 130.803L357.956 130.678ZM351.838 126.242C351.948 126.198 352.131 126.171 352.398 126.191C352.659 126.211 352.97 126.274 353.316 126.379C354.008 126.591 354.797 126.961 355.531 127.434C356.266 127.909 356.923 128.471 357.37 129.054C357.822 129.643 358.018 130.196 357.956 130.677L358.948 130.804C359.057 129.955 358.696 129.14 358.164 128.445C357.627 127.745 356.873 127.11 356.073 126.594C355.271 126.077 354.4 125.665 353.608 125.423C353.213 125.302 352.827 125.221 352.473 125.194C352.124 125.168 351.773 125.192 351.469 125.313L351.838 126.242ZM322.401 137.845L351.837 126.242L351.47 125.312L322.034 136.914L322.401 137.845ZM235.687 150.79C240.367 152.253 248.146 152.144 257.096 151.2C266.073 150.253 276.318 148.454 285.98 146.479C295.645 144.503 304.736 142.349 311.411 140.689C314.749 139.859 317.483 139.152 319.382 138.653C320.332 138.404 321.074 138.206 321.578 138.07C321.83 138.003 322.023 137.951 322.152 137.915C322.217 137.898 322.266 137.884 322.299 137.875C322.316 137.871 322.328 137.868 322.337 137.865C322.341 137.864 322.344 137.863 322.346 137.863C322.347 137.862 322.348 137.862 322.349 137.862C322.349 137.862 322.349 137.862 322.217 137.38C322.085 136.897 322.085 136.897 322.085 136.897C322.084 136.898 322.083 136.898 322.082 136.898C322.08 136.899 322.077 136.899 322.073 136.901C322.065 136.903 322.053 136.906 322.036 136.911C322.004 136.919 321.955 136.933 321.891 136.95C321.762 136.985 321.57 137.037 321.318 137.105C320.816 137.24 320.076 137.437 319.128 137.686C317.232 138.184 314.502 138.89 311.17 139.719C304.503 141.377 295.426 143.527 285.78 145.499C276.132 147.472 265.923 149.263 256.991 150.206C248.031 151.151 240.444 151.23 235.986 149.835L235.687 150.79ZM235.08 150.6C235.28 150.662 235.482 150.726 235.687 150.79L235.986 149.835C235.781 149.771 235.578 149.708 235.379 149.645L235.08 150.6ZM217.665 139.635C220.616 143.298 223.058 145.453 225.741 146.989C228.411 148.518 231.298 149.418 235.08 150.6L235.379 149.645C231.571 148.455 228.796 147.585 226.238 146.121C223.694 144.665 221.343 142.606 218.444 139.007L217.665 139.635ZM209.787 113.097C209.459 116.784 209.93 121.55 211.225 126.315C212.52 131.082 214.648 135.887 217.665 139.635L218.444 139.008C215.538 135.396 213.46 130.728 212.19 126.053C210.92 121.378 210.468 116.733 210.783 113.186L209.787 113.097ZM210.289 100.683C210.261 104.037 210.227 108.118 209.787 113.098L210.783 113.186C211.226 108.163 211.261 104.047 211.289 100.691L210.289 100.683ZM215.284 87.0462C214.081 87.5269 213.149 88.1472 212.439 88.9476C211.728 89.7479 211.261 90.7025 210.952 91.8177C210.341 94.0168 210.32 96.932 210.289 100.683L211.289 100.691C211.321 96.8837 211.348 94.1268 211.915 92.0854C212.194 91.0804 212.599 90.2726 213.186 89.6115C213.773 88.9505 214.565 88.4104 215.655 87.9748L215.284 87.0462ZM220.976 69.5029C223.254 69.4024 224.943 69.573 226.154 69.9324C227.363 70.291 228.055 70.8242 228.412 71.4244C228.769 72.0233 228.843 72.7739 228.64 73.6727C228.436 74.5755 227.959 75.5895 227.271 76.6593C225.894 78.7976 223.731 81.0658 221.478 82.9733C219.22 84.8845 216.918 86.3938 215.284 87.0461L215.655 87.9749C217.433 87.265 219.83 85.678 222.124 83.7365C224.422 81.7912 226.663 79.4503 228.112 77.2006C228.835 76.0764 229.376 74.9517 229.615 73.8932C229.855 72.8309 229.799 71.7977 229.271 70.9126C228.745 70.0287 227.8 69.3776 226.439 68.9737C225.08 68.5707 223.268 68.4008 220.932 68.5038L220.976 69.5029Z" fill="#B42025"/>
</svg>
