<svg width="457" height="235" viewBox="0 0 457 235" fill="none" xmlns="http://www.w3.org/2000/svg">
<g clip-path="url(#clip0_97_59)">
<mask id="mask0_97_59" style="mask-type:luminance" maskUnits="userSpaceOnUse" x="-19" y="4" width="476" height="223">
<path d="M457 4.27271H-18.1943V226.455H457V4.27271Z" fill="white"/>
</mask>
<g mask="url(#mask0_97_59)">
<path fill-rule="evenodd" clip-rule="evenodd" d="M31.1646 91.5099L47.6811 72.0232H79.5902L87.8419 89.4025V111.418H71.97L71.3278 91.7739H45.738L46.1982 200.921L70.7071 200.558L70.996 182.537H87.8419V205.225L75.2128 222.498H42.5058L29.2239 204.894L31.1646 91.5099Z" fill="black"/>
<path d="M104.013 72.0339L103.35 205.77L116.172 222.049L144.929 222.498L157.334 206.155V72.6534L141.28 72.2689L140.541 200.184L120.538 200.088L120.485 72.0232L104.013 72.0339Z" fill="black"/>
<path d="M213.661 72.0232H197.329L175.839 222.498H192.909L198.293 183.403L214.197 183.456L220.094 222.498H236.158L213.661 72.0232ZM201.086 161.857L206.095 122.644L211.104 161.857H201.086Z" fill="black"/>
<path d="M299.946 72.0232H255.444V222.498H299.186L312.007 205.621V90.0755L299.946 72.0232ZM297.623 203.944H269.828V90.5882H297.623V203.944Z" fill="black"/>
<path d="M324.936 138.464L325.921 139.094C325.921 139.094 328.8 133.647 331.047 130.431C331.625 129.598 332.299 128.861 333.049 128.22C335.136 126.404 339.459 123.093 341.407 122.067C341.407 122.067 344.896 120.358 349.209 120.145C349.295 120.145 349.306 120.006 349.22 119.995C346.138 119.728 338.593 119.215 332.62 120.123C332.62 120.123 326.445 121.256 324.24 122.463C324.24 122.463 327.804 125.283 327.687 128.658C327.558 132.034 324.936 138.464 324.936 138.464Z" fill="#B42025" stroke="#B42025" stroke-miterlimit="10"/>
<path d="M356.776 126.693C356.851 126.661 356.905 126.778 356.83 126.81C352.003 129.523 336.634 138.186 335.221 139.094C335.221 139.094 330.073 142.31 329.731 144.542C329.731 144.542 329.367 143.399 327.451 143.474L326.659 140.579L356.776 126.693Z" fill="#B42025" stroke="#B42025" stroke-miterlimit="10"/>
<path d="M386.893 102.349L392.084 102.317C392.084 102.317 395.016 97.2216 399.522 95.2775L410.289 88.9966L386.315 99.4327L386.893 102.349Z" fill="#B42025" stroke="#B42025" stroke-miterlimit="10"/>
<path d="M386.091 98.354C386.091 98.354 390.757 90.4387 394.417 86.369C394.417 86.369 398.227 82.4167 405.633 78.5926C405.633 78.5926 410.407 75.7832 418.284 77.77C418.562 77.8341 418.691 77.3962 418.423 77.2894C415.608 76.061 410.578 74.4586 403.996 74.8004C394.556 75.2811 389.323 76.1999 384.357 77.8021C383.971 77.9303 383.961 78.5391 384.335 78.6779C385.951 79.2441 388.36 80.7609 389.119 84.7879C389.119 84.7879 390.093 90.6417 385.331 98.151L386.091 98.354Z" fill="#B42025" stroke="#B42025" stroke-miterlimit="10"/>
<path d="M380.707 108.747L362.117 120.252C362.106 120.252 362.106 120.252 362.095 120.262H360.779C360.715 120.262 360.747 120.113 360.747 120.113L380.622 105.489C380.675 105.447 380.729 105.521 380.697 105.596C380.611 105.831 380.504 106.237 380.504 106.857C380.515 106.889 380.729 108.737 380.707 108.747Z" fill="#B42025" stroke="#B42025" stroke-miterlimit="10"/>
<path d="M382.805 100.928C382.056 101.003 377.764 101.334 376.405 99.4968L349.755 110.713C349.541 110.798 349.638 111.172 349.862 111.108L382.912 102.797C383.008 102.776 383.083 102.648 383.062 102.509L382.923 101.067C382.923 100.992 382.869 100.928 382.805 100.928Z" fill="#B42025" stroke="#B42025" stroke-miterlimit="10"/>
<path d="M425.08 114.889C425.08 114.889 417.224 107.861 428.665 101.184C428.805 101.11 428.73 100.864 428.58 100.917C424.288 102.381 411.541 106.931 404.649 111.578C404.542 111.653 404.617 111.845 404.734 111.802C408.02 110.531 418.605 107.273 423.978 115.466L425.08 114.889Z" fill="#B42025" stroke="#B42025" stroke-miterlimit="10"/>
<path d="M422.854 120.882C422.854 120.882 396.13 122.89 393.796 125.326C393.796 125.326 391.024 123.798 392.994 122.409C392.994 122.409 397.125 123.627 409.23 120.893C421.345 118.158 423.71 117.058 423.71 117.058L423.892 119.408C423.881 119.397 422.875 119.728 422.854 120.882Z" fill="#B42025" stroke="#B42025" stroke-miterlimit="10"/>
<path d="M428.954 118.916C429.361 119.685 430.142 120.091 430.913 119.888C435.825 118.639 451.655 114.644 454.073 114.537C456.942 114.419 437.773 116.278 436.2 115.786C434.648 115.306 456.781 99.5288 455.829 99.9667C451.911 101.761 435.954 112.304 435.322 112.208C435.322 112.208 427.328 116.427 426.685 115.466C426.214 114.74 428.034 117.175 428.954 118.916Z" fill="#B42025" stroke="#B42025" stroke-miterlimit="10"/>
<path fill-rule="evenodd" clip-rule="evenodd" d="M321.929 143.592C322.025 144.168 321.961 144.788 321.64 145.247C321.019 146.134 321.458 148.548 321.811 150.097C322.014 150.898 321.789 151.742 321.265 152.329C320.42 153.28 320.27 154.476 320.965 157.435C321.597 160.074 324.422 160.319 326.113 160.212C326.755 160.17 327.398 159.956 327.976 159.561C331.807 156.944 346.041 155.737 347.818 155.598C347.947 155.587 348.075 155.566 348.193 155.523C357.183 152.628 360.779 154.978 361.721 155.844C361.892 155.993 362.031 156.185 362.138 156.388L368.1 167.412C368.378 167.925 368.827 168.288 369.341 168.427L386.765 173.095C387.182 173.212 387.61 173.169 388.006 172.977L396.354 168.95C396.408 168.929 396.451 168.907 396.493 168.875C397.071 168.534 401.063 166.055 400.678 163.577C400.539 162.648 400.539 161.783 400.614 161.056C400.721 160.009 401.438 159.091 402.369 159.016C404.959 158.813 404.916 153.803 403.279 147.287C401.417 139.842 416.133 139.084 416.133 139.084C418.786 139.046 419.501 138.383 420.509 137.446C420.92 137.065 421.38 136.638 422.04 136.189C424.32 134.64 425.979 135.26 425.979 135.26C429.607 135.591 430.752 134.64 431.684 133.796C436.885 129.107 433.642 125.464 432.24 124.257C431.887 123.958 431.641 123.52 431.534 123.029C430.956 120.348 430.228 119.493 429.693 119.258C429.104 119.002 428.697 118.393 428.505 117.72C428.194 116.652 427.852 115.851 427.499 115.253C426.364 113.298 423.603 114.387 423.86 116.705C423.881 116.866 423.903 116.951 423.903 116.951C423.965 121.267 423.496 121.528 423.118 121.74C422.979 121.818 422.852 121.888 422.768 122.153C422.629 122.602 422.704 123.478 422.832 124.268C423.014 125.411 422.394 126.511 421.409 126.832C419.568 127.43 416.015 128.135 409.497 128.049C401.053 127.943 393.529 126.853 390.275 126.308C389.237 126.137 388.499 125.101 388.574 123.926C388.702 122.025 389.184 119.387 390.842 118.543C393.54 117.175 393.229 114.281 393.229 114.281C393.325 109.356 390.008 108.94 390.008 108.94C390.008 108.94 390.008 110.766 389.697 106.547C389.505 103.983 388.509 102.979 387.76 102.584C387.193 102.296 386.808 101.697 386.69 101.014C386.262 98.5249 385.534 96.0147 383.158 96.8586C381.189 97.5529 381.392 100.608 381.681 102.349C381.788 103.011 381.638 103.684 381.264 104.197C380.044 105.885 380.44 109.687 380.696 111.375C380.771 111.867 380.696 112.369 380.482 112.796C379.594 114.548 379.883 116.727 380.183 118.019C380.354 118.756 380.183 119.536 379.722 120.102L377.004 123.467C376.886 123.617 376.801 123.777 376.715 123.948C375.249 126.96 367.918 132.397 367.918 132.397C368.493 133.285 345.775 142.971 336.055 147.115C333.49 148.209 331.83 148.917 331.743 148.975C331.336 149.253 329.774 148.409 329.881 145.6C329.945 144.072 329.196 143.538 328.511 143.378C327.804 143.218 327.269 142.587 327.055 141.808C326.509 139.778 325.482 137.663 323.352 138.443C321.501 139.116 321.65 141.904 321.929 143.592ZM388.841 114.206C386.283 114.302 381.371 115.018 381.735 116.62C382.034 117.966 382.505 121.331 379.83 125.774C377.111 130.239 376.084 135.943 376.084 135.943L381.959 153.098C381.959 153.098 395.744 158.546 399.619 157.574C403.493 156.602 402.348 152.319 402.348 152.319C402.348 152.319 398.527 144.82 402.851 140.985C404.231 139.767 411.199 137.14 416.24 137.46C418.24 137.595 419.7 136.529 421.673 135.086C421.885 134.931 422.104 134.77 422.329 134.608C424.56 132.992 425.455 133.271 426.405 133.567C427.251 133.829 428.141 134.106 430.057 133.07C431.928 132.053 432.012 131.47 432.113 130.772C432.116 130.751 432.119 130.731 432.122 130.709C432.229 130.004 430.506 129.214 429.982 129.385L420.713 132.482C420.713 132.482 399.287 137.471 393.529 135.943C393.472 135.928 393.415 135.913 393.36 135.898C390.959 135.267 389.783 134.958 387.931 133.006C386.069 131.04 385.288 127.943 385.491 126.009C385.629 124.668 385.639 123.568 385.647 122.67C385.665 120.649 385.673 119.64 387.118 119.152C389.258 118.425 394.653 113.992 388.841 114.206Z" fill="#B42025"/>
<path d="M321.811 150.097L321.289 150.215L321.292 150.228L321.811 150.097ZM321.265 152.329L320.866 151.973L320.865 151.975L321.265 152.329ZM320.965 157.435L320.444 157.557L320.445 157.559L320.965 157.435ZM327.976 159.561L327.674 159.12L327.673 159.121L327.976 159.561ZM347.818 155.598L347.86 156.13H347.862L347.818 155.598ZM348.193 155.523L348.028 155.015L348.019 155.018L348.01 155.021L348.193 155.523ZM361.721 155.843L361.358 156.237L361.369 156.245L361.721 155.843ZM362.138 156.388L361.664 156.637L361.667 156.641L362.138 156.388ZM368.1 167.412L367.629 167.665V167.666L368.1 167.412ZM369.341 168.427L369.201 168.943H369.202L369.341 168.427ZM386.765 173.095L386.91 172.581L386.904 172.579L386.765 173.095ZM388.006 172.977L387.773 172.496H387.772L388.006 172.977ZM396.354 168.95L396.155 168.454L396.138 168.461L396.121 168.469L396.354 168.95ZM396.494 168.875L396.221 168.416L396.196 168.431L396.172 168.448L396.494 168.875ZM400.678 163.577L400.148 163.656L400.15 163.659L400.678 163.577ZM402.369 159.016L402.327 158.484H402.326L402.369 159.016ZM416.133 139.084L416.125 138.55H416.115L416.105 138.551L416.133 139.084ZM425.979 135.26L425.792 135.76L425.859 135.785L425.93 135.792L425.979 135.26ZM431.684 133.796L431.325 133.4L431.324 133.401L431.684 133.796ZM432.24 124.257L432.59 123.853L432.586 123.85L432.24 124.257ZM428.505 117.72L429.02 117.574L429.019 117.572L428.505 117.72ZM427.499 115.253L427.035 115.521L427.038 115.524L427.499 115.253ZM423.86 116.705L423.328 116.764L423.329 116.776L423.86 116.705ZM423.903 116.951L424.438 116.943L424.437 116.882L424.422 116.822L423.903 116.951ZM422.768 122.153L422.258 121.993L422.257 121.995L422.768 122.153ZM422.833 124.268L423.361 124.185L423.36 124.183L422.833 124.268ZM390.275 126.308L390.364 125.782H390.362L390.275 126.308ZM388.574 123.926L388.04 123.89V123.892L388.574 123.926ZM390.843 118.543L390.601 118.066L390.6 118.067L390.843 118.543ZM393.229 114.281L392.694 114.27L392.693 114.304L392.697 114.337L393.229 114.281ZM390.008 108.94L390.074 108.41L389.473 108.334V108.94H390.008ZM387.76 102.584L388.011 102.112L388.003 102.108L387.76 102.584ZM383.158 96.8585L383.336 97.3621L383.338 97.3617L383.158 96.8585ZM381.681 102.349L382.21 102.264L382.209 102.262L381.681 102.349ZM381.264 104.197L380.831 103.882L380.829 103.884L381.264 104.197ZM380.482 112.796L380.96 113.037L380.961 113.035L380.482 112.796ZM379.723 120.102L379.307 119.766L379.306 119.767L379.723 120.102ZM377.004 123.467L376.588 123.131L376.584 123.137L377.004 123.467ZM376.715 123.948L376.237 123.708L376.234 123.715L376.715 123.948ZM367.918 132.397L367.599 131.969L367.195 132.267L367.468 132.687L367.918 132.397ZM331.743 148.975L331.446 148.531L331.441 148.534L331.743 148.975ZM329.881 145.6L329.346 145.577V145.579L329.881 145.6ZM328.511 143.378L328.633 142.858L328.63 142.857L328.511 143.378ZM327.055 141.808L326.538 141.946L326.539 141.949L327.055 141.808ZM323.352 138.443L323.535 138.945L323.536 138.944L323.352 138.443ZM381.735 116.62L382.257 116.503V116.501L381.735 116.62ZM388.841 114.206L388.822 113.672H388.821L388.841 114.206ZM379.83 125.774L380.287 126.052L380.289 126.049L379.83 125.774ZM376.084 135.943L375.557 135.848L375.533 135.985L375.577 136.116L376.084 135.943ZM381.959 153.098L381.453 153.271L381.532 153.504L381.762 153.595L381.959 153.098ZM402.348 152.318L402.865 152.181L402.851 152.126L402.825 152.076L402.348 152.318ZM402.851 140.985L402.497 140.585L402.496 140.586L402.851 140.985ZM416.24 137.46L416.276 136.927H416.274L416.24 137.46ZM422.33 134.608L422.643 135.041H422.644L422.33 134.608ZM430.057 133.07L430.312 133.539H430.313L430.057 133.07ZM432.122 130.709L431.594 130.629L431.593 130.631L432.122 130.709ZM429.982 129.385L429.816 128.877L429.812 128.878L429.982 129.385ZM420.713 132.482L420.835 133.003L420.859 132.996L420.884 132.989L420.713 132.482ZM387.118 119.151L387.289 119.657H387.29L387.118 119.151ZM322.079 145.553C322.508 144.939 322.567 144.162 322.456 143.504L321.401 143.678C321.483 144.174 321.414 144.636 321.201 144.942L322.079 145.553ZM322.332 149.978C322.158 149.211 321.966 148.249 321.893 147.379C321.857 146.943 321.852 146.547 321.887 146.218C321.923 145.879 321.998 145.667 322.079 145.553L321.201 144.942C320.971 145.271 320.867 145.693 320.823 146.104C320.777 146.526 320.787 146.996 320.826 147.468C320.907 148.414 321.111 149.433 321.289 150.215L322.332 149.978ZM321.664 152.685C322.304 151.968 322.577 150.943 322.33 149.965L321.292 150.228C321.451 150.853 321.275 151.515 320.866 151.973L321.664 152.685ZM321.487 157.313C321.141 155.846 321.021 154.871 321.071 154.167C321.12 153.495 321.323 153.069 321.665 152.684L320.865 151.975C320.362 152.54 320.068 153.188 320.003 154.092C319.941 154.962 320.093 156.066 320.444 157.557L321.487 157.313ZM326.079 159.679C325.266 159.731 324.225 159.692 323.332 159.354C322.464 159.025 321.752 158.423 321.486 157.311L320.445 157.559C320.81 159.085 321.827 159.926 322.952 160.352C324.052 160.77 325.27 160.801 326.148 160.745L326.079 159.679ZM327.673 159.121C327.174 159.461 326.625 159.643 326.078 159.679L326.148 160.745C326.885 160.696 327.62 160.451 328.279 160.001L327.673 159.121ZM347.776 155.066C346.883 155.135 342.865 155.473 338.587 156.122C336.449 156.446 334.236 156.85 332.31 157.339C330.404 157.824 328.715 158.408 327.674 159.12L328.277 160.002C329.152 159.405 330.679 158.857 332.575 158.375C334.452 157.898 336.627 157.5 338.748 157.178C342.989 156.535 346.977 156.199 347.86 156.13L347.776 155.066ZM348.01 155.021C347.953 155.041 347.876 155.057 347.773 155.066L347.862 156.13C348.017 156.117 348.197 156.09 348.376 156.025L348.01 155.021ZM362.084 155.45C360.964 154.423 357.152 152.077 348.028 155.015L348.357 156.031C357.214 153.179 360.594 155.534 361.358 156.237L362.084 155.45ZM362.611 156.139C362.482 155.894 362.305 155.645 362.073 155.442L361.369 156.245C361.479 156.341 361.581 156.477 361.664 156.637L362.611 156.139ZM368.571 167.159L362.609 156.135L361.667 156.641L367.629 167.665L368.571 167.159ZM369.481 167.911C369.12 167.814 368.785 167.553 368.571 167.159L367.629 167.666C367.971 168.297 368.535 168.762 369.201 168.943L369.481 167.911ZM386.904 172.579L369.48 167.911L369.202 168.943L386.626 173.611L386.904 172.579ZM387.772 172.496C387.489 172.634 387.196 172.661 386.91 172.581L386.619 173.608C387.168 173.763 387.731 173.705 388.241 173.458L387.772 172.496ZM396.121 168.469L387.773 172.496L388.24 173.458L396.588 169.431L396.121 168.469ZM396.172 168.448C396.174 168.447 396.175 168.447 396.176 168.446C396.177 168.445 396.178 168.445 396.178 168.445C396.177 168.445 396.171 168.448 396.155 168.454L396.553 169.446C396.632 169.415 396.721 169.372 396.815 169.303L396.172 168.448ZM400.15 163.659C400.221 164.122 400.095 164.619 399.802 165.141C399.507 165.664 399.067 166.175 398.578 166.641C397.598 167.572 396.496 168.254 396.221 168.416L396.766 169.335C397.069 169.155 398.251 168.427 399.316 167.414C399.849 166.908 400.37 166.313 400.735 165.663C401.1 165.014 401.328 164.271 401.207 163.495L400.15 163.659ZM400.082 161.002C400.003 161.77 400.003 162.68 400.148 163.656L401.207 163.498C401.075 162.616 401.075 161.795 401.146 161.111L400.082 161.002ZM402.326 158.484C401.05 158.587 400.205 159.798 400.082 161.002L401.146 161.111C401.237 160.221 401.826 159.595 402.412 159.548L402.326 158.484ZM402.76 147.417C403.574 150.655 403.979 153.477 403.875 155.491C403.823 156.503 403.644 157.257 403.367 157.754C403.105 158.226 402.767 158.449 402.327 158.484L402.411 159.548C403.266 159.482 403.895 159.003 404.302 158.274C404.694 157.571 404.888 156.629 404.944 155.547C405.057 153.376 404.621 150.434 403.798 147.157L402.76 147.417ZM416.133 139.084C416.105 138.551 416.105 138.551 416.105 138.551H416.104C416.103 138.551 416.103 138.551 416.102 138.551C416.1 138.551 416.096 138.551 416.092 138.551C416.085 138.552 416.073 138.552 416.059 138.553C416.029 138.555 415.986 138.557 415.932 138.561C415.82 138.569 415.66 138.581 415.456 138.599C415.051 138.635 414.474 138.695 413.789 138.79C412.421 138.979 410.606 139.312 408.842 139.886C407.088 140.455 405.328 141.281 404.122 142.487C402.888 143.723 402.244 145.353 402.76 147.417L403.798 147.158C403.383 145.499 403.879 144.243 404.88 143.242C405.91 142.212 407.481 141.452 409.173 140.902C410.855 140.355 412.603 140.032 413.937 139.847C414.601 139.756 415.16 139.698 415.552 139.663C415.746 139.646 415.9 139.634 416.004 139.627C416.057 139.623 416.096 139.621 416.122 139.619C416.136 139.619 416.146 139.618 416.152 139.618C416.155 139.618 416.157 139.618 416.158 139.617C416.16 139.617 416.16 139.617 416.161 139.617C416.161 139.617 416.161 139.617 416.133 139.084ZM420.145 137.055C419.635 137.528 419.263 137.869 418.717 138.115C418.173 138.362 417.411 138.531 416.125 138.55L416.14 139.618C417.508 139.599 418.431 139.417 419.158 139.088C419.885 138.76 420.375 138.3 420.874 137.837L420.145 137.055ZM421.74 135.748C421.043 136.221 420.557 136.673 420.145 137.055L420.874 137.837C421.284 137.457 421.717 137.054 422.341 136.63L421.74 135.748ZM425.979 135.26C426.166 134.76 426.166 134.76 426.166 134.759C426.165 134.759 426.165 134.759 426.165 134.759C426.164 134.759 426.164 134.759 426.164 134.759C426.163 134.758 426.161 134.758 426.16 134.758C426.158 134.757 426.155 134.755 426.151 134.754C426.145 134.751 426.136 134.749 426.127 134.746C426.106 134.739 426.081 134.731 426.048 134.721C425.982 134.703 425.891 134.682 425.778 134.661C425.55 134.621 425.23 134.589 424.835 134.61C424.04 134.654 422.961 134.918 421.74 135.748L422.341 136.63C423.4 135.911 424.29 135.71 424.894 135.676C425.199 135.66 425.435 135.686 425.591 135.713C425.668 135.726 425.724 135.74 425.759 135.75C425.776 135.755 425.788 135.758 425.793 135.761C425.796 135.762 425.797 135.762 425.797 135.762C425.797 135.762 425.796 135.762 425.795 135.762C425.795 135.761 425.793 135.761 425.793 135.761L425.792 135.76C425.792 135.758 425.792 135.76 425.979 135.26ZM431.324 133.401C430.87 133.811 430.416 134.2 429.664 134.465C428.904 134.733 427.793 134.889 426.027 134.728L425.93 135.792C427.793 135.961 429.069 135.808 430.02 135.472C430.982 135.134 431.565 134.625 432.043 134.191L431.324 133.401ZM431.89 124.662C432.561 125.239 433.613 126.354 433.914 127.827C434.203 129.245 433.824 131.147 431.325 133.4L432.042 134.193C434.745 131.756 435.345 129.493 434.963 127.615C434.591 125.792 433.321 124.483 432.59 123.853L431.89 124.662ZM431.01 123.141C431.139 123.731 431.439 124.279 431.893 124.664L432.586 123.85C432.335 123.638 432.143 123.309 432.057 122.916L431.01 123.141ZM429.478 119.747C429.603 119.802 429.843 119.97 430.13 120.486C430.415 121 430.728 121.829 431.01 123.141L432.057 122.916C431.762 121.546 431.421 120.608 431.065 119.968C430.71 119.327 430.318 118.95 429.908 118.769L429.478 119.747ZM427.99 117.866C428.207 118.627 428.69 119.405 429.479 119.747L429.908 118.769C429.52 118.599 429.187 118.159 429.02 117.574L427.99 117.866ZM427.038 115.524C427.363 116.074 427.689 116.831 427.991 117.869L429.019 117.572C428.7 116.472 428.341 115.628 427.96 114.981L427.038 115.524ZM424.392 116.647C424.29 115.729 424.777 115.103 425.355 114.873C425.922 114.648 426.608 114.784 427.035 115.521L427.962 114.984C427.255 113.767 425.993 113.47 424.96 113.88C423.938 114.286 423.173 115.364 423.328 116.764L424.392 116.647ZM423.903 116.951C424.422 116.822 424.422 116.822 424.422 116.822C424.422 116.823 424.423 116.824 424.423 116.824C424.423 116.825 424.423 116.825 424.423 116.824C424.423 116.824 424.422 116.823 424.422 116.82C424.42 116.813 424.418 116.803 424.414 116.786C424.409 116.756 424.399 116.704 424.391 116.635L423.329 116.776C423.342 116.867 423.354 116.938 423.364 116.989C423.369 117.015 423.373 117.035 423.376 117.051C423.378 117.059 423.379 117.065 423.381 117.07C423.382 117.072 423.382 117.074 423.383 117.076C423.383 117.077 423.383 117.078 423.383 117.078C423.383 117.079 423.384 117.079 423.384 117.079C423.384 117.079 423.384 117.08 423.903 116.951ZM423.379 122.205C423.48 122.15 423.663 122.05 423.829 121.84C423.99 121.638 424.106 121.371 424.195 121.013C424.369 120.309 424.469 119.104 424.438 116.943L423.368 116.958C423.399 119.113 423.295 120.197 423.157 120.756C423.088 121.029 423.022 121.137 422.989 121.179C422.963 121.211 422.946 121.224 422.857 121.274L423.379 122.205ZM423.279 122.313C423.29 122.278 423.299 122.26 423.303 122.253C423.307 122.247 423.307 122.248 423.303 122.25C423.302 122.252 423.302 122.248 423.379 122.205L422.857 121.274C422.794 121.308 422.661 121.379 422.54 121.501C422.411 121.633 422.32 121.795 422.258 121.993L423.279 122.313ZM423.36 124.183C423.298 123.8 423.251 123.405 423.235 123.058C423.218 122.695 423.239 122.441 423.28 122.311L422.257 121.995C422.158 122.313 422.148 122.722 422.166 123.107C422.184 123.507 422.238 123.945 422.304 124.353L423.36 124.183ZM421.575 127.339C422.845 126.926 423.579 125.548 423.361 124.185L422.304 124.351C422.45 125.274 421.942 126.097 421.243 126.324L421.575 127.339ZM409.49 128.583C416.045 128.669 419.661 127.962 421.575 127.339L421.243 126.324C419.475 126.898 415.984 127.601 409.505 127.515L409.49 128.583ZM390.186 126.835C393.455 127.382 401.007 128.477 409.49 128.583L409.505 127.515C401.099 127.408 393.603 126.324 390.364 125.782L390.186 126.835ZM388.04 123.892C387.951 125.289 388.83 126.612 390.189 126.835L390.362 125.782C389.644 125.663 389.047 124.913 389.108 123.96L388.04 123.892ZM390.6 118.067C389.587 118.582 388.989 119.612 388.628 120.665C388.262 121.731 388.105 122.918 388.04 123.89L389.108 123.963C389.17 123.033 389.319 121.95 389.641 121.011C389.967 120.058 390.439 119.347 391.086 119.018L390.6 118.067ZM393.229 114.281C392.697 114.337 392.697 114.337 392.697 114.337V114.335C392.697 114.335 392.697 114.336 392.697 114.337C392.697 114.34 392.697 114.346 392.698 114.353C392.699 114.369 392.702 114.394 392.703 114.429C392.705 114.497 392.707 114.601 392.701 114.73C392.689 114.991 392.648 115.353 392.534 115.75C392.305 116.539 391.787 117.465 390.601 118.066L391.084 119.019C392.596 118.253 393.271 117.048 393.561 116.047C393.705 115.551 393.756 115.103 393.77 114.778C393.777 114.615 393.776 114.481 393.772 114.386C393.77 114.339 393.768 114.301 393.765 114.273C393.764 114.26 393.763 114.248 393.763 114.24C393.762 114.236 393.762 114.232 393.762 114.23C393.762 114.228 393.761 114.227 393.761 114.226V114.224C393.761 114.224 393.761 114.224 393.229 114.281ZM390.008 108.94C389.941 109.47 389.94 109.47 389.94 109.469C389.94 109.469 389.939 109.469 389.938 109.469C389.938 109.469 389.937 109.469 389.937 109.469C389.937 109.469 389.937 109.469 389.938 109.469C389.94 109.469 389.945 109.47 389.952 109.472C389.968 109.474 389.994 109.479 390.029 109.487C390.1 109.504 390.206 109.533 390.336 109.582C390.597 109.68 390.95 109.855 391.301 110.164C391.983 110.765 392.74 111.942 392.694 114.27L393.764 114.291C393.815 111.695 392.961 110.201 392.008 109.363C391.541 108.952 391.071 108.716 390.713 108.582C390.533 108.515 390.381 108.473 390.271 108.447C390.216 108.434 390.17 108.425 390.137 108.42C390.121 108.417 390.107 108.414 390.097 108.413C390.091 108.412 390.087 108.411 390.083 108.411C390.082 108.411 390.079 108.41 390.078 108.41C390.077 108.41 390.076 108.41 390.076 108.41L390.075 108.41C390.075 108.41 390.074 108.41 390.008 108.94ZM389.163 106.586C389.241 107.642 389.3 108.326 389.344 108.756C389.367 108.97 389.386 109.127 389.403 109.239C389.412 109.294 389.42 109.345 389.43 109.389C389.436 109.415 389.454 109.5 389.499 109.582C389.513 109.607 389.539 109.65 389.582 109.696C389.622 109.739 389.708 109.816 389.843 109.85C390.199 109.941 390.398 109.67 390.431 109.62C390.478 109.547 390.497 109.479 390.502 109.459C390.511 109.428 390.516 109.401 390.519 109.382C390.53 109.315 390.535 109.237 390.538 109.184C390.54 109.123 390.542 109.062 390.542 109.018C390.543 108.995 390.543 108.976 390.543 108.962C390.543 108.956 390.543 108.95 390.543 108.946C390.543 108.944 390.543 108.943 390.543 108.942C390.543 108.941 390.543 108.941 390.543 108.94C390.543 108.94 390.543 108.94 390.543 108.94C390.543 108.94 390.543 108.94 390.008 108.94C389.473 108.94 389.473 108.94 389.473 108.94C389.473 108.939 389.473 108.94 389.473 108.94C389.473 108.94 389.473 108.942 389.473 108.943C389.473 108.946 389.473 108.95 389.473 108.956C389.473 108.967 389.473 108.983 389.472 109.002C389.472 109.041 389.471 109.09 389.468 109.135C389.466 109.187 389.463 109.209 389.463 109.208C389.464 109.206 389.466 109.193 389.472 109.174C389.474 109.165 389.489 109.106 389.533 109.039C389.561 108.994 389.756 108.726 390.108 108.815C390.242 108.849 390.325 108.925 390.363 108.965C390.404 109.008 390.427 109.049 390.438 109.069C390.473 109.133 390.481 109.184 390.474 109.155C390.472 109.145 390.468 109.121 390.46 109.078C390.448 108.991 390.431 108.854 390.409 108.646C390.366 108.232 390.308 107.561 390.231 106.508L389.163 106.586ZM387.51 103.056C388.064 103.348 388.981 104.166 389.163 106.586L390.231 106.508C390.027 103.801 388.955 102.61 388.011 102.112L387.51 103.056ZM386.162 101.104C386.303 101.917 386.769 102.68 387.517 103.06L388.003 102.108C387.617 101.912 387.313 101.477 387.218 100.923L386.162 101.104ZM383.338 97.3617C383.842 97.1825 384.198 97.2008 384.462 97.3008C384.73 97.4031 384.976 97.6193 385.203 97.9736C385.671 98.7048 385.947 99.8532 386.162 101.104L387.218 100.923C387.005 99.6852 386.703 98.3342 386.106 97.3991C385.8 96.9201 385.392 96.5115 384.843 96.3027C384.287 96.0916 383.662 96.1126 382.978 96.3554L383.338 97.3617ZM382.209 102.262C382.068 101.409 381.955 100.275 382.102 99.2898C382.251 98.2909 382.634 97.6096 383.336 97.3621L382.979 96.3549C381.712 96.8016 381.213 97.995 381.043 99.1325C380.872 100.283 381.006 101.547 381.154 102.436L382.209 102.262ZM381.696 104.512C382.161 103.875 382.337 103.056 382.21 102.264L381.152 102.434C381.239 102.967 381.115 103.493 380.831 103.882L381.696 104.512ZM381.225 111.295C381.099 110.465 380.941 109.125 380.961 107.794C380.982 106.431 381.192 105.208 381.697 104.509L380.829 103.884C380.115 104.873 379.913 106.395 379.891 107.778C379.869 109.192 380.037 110.597 380.168 111.455L381.225 111.295ZM380.961 113.035C381.227 112.504 381.316 111.89 381.225 111.295L380.168 111.455C380.227 111.843 380.166 112.233 380.004 112.557L380.961 113.035ZM380.704 117.898C380.409 116.626 380.162 114.61 380.96 113.037L380.005 112.555C379.026 114.486 379.357 116.827 379.662 118.14L380.704 117.898ZM380.138 120.439C380.707 119.738 380.911 118.788 380.704 117.898L379.662 118.14C379.797 118.724 379.658 119.334 379.307 119.766L380.138 120.439ZM377.42 123.802L380.139 120.438L379.306 119.767L376.588 123.131L377.42 123.802ZM377.194 124.187C377.277 124.02 377.342 123.902 377.425 123.797L376.584 123.137C376.429 123.332 376.325 123.533 376.237 123.708L377.194 124.187ZM367.918 132.397C368.237 132.825 368.237 132.825 368.237 132.825C368.237 132.825 368.237 132.825 368.238 132.825C368.238 132.825 368.238 132.825 368.239 132.824C368.24 132.824 368.241 132.823 368.243 132.821C368.246 132.819 368.252 132.815 368.259 132.809C368.273 132.799 368.294 132.783 368.322 132.762C368.377 132.721 368.457 132.661 368.56 132.583C368.765 132.427 369.06 132.2 369.417 131.92C370.131 131.36 371.1 130.581 372.116 129.706C373.131 128.832 374.199 127.858 375.109 126.908C376.009 125.968 376.791 125.013 377.197 124.18L376.234 123.715C375.906 124.389 375.222 125.243 374.335 126.169C373.458 127.086 372.418 128.036 371.417 128.898C370.417 129.758 369.461 130.527 368.756 131.08C368.402 131.356 368.112 131.58 367.911 131.732C367.811 131.809 367.731 131.868 367.679 131.909C367.652 131.928 367.632 131.943 367.618 131.954C367.612 131.959 367.606 131.962 367.603 131.964C367.602 131.966 367.6 131.966 367.6 131.967C367.599 131.967 367.599 131.967 367.599 131.969C367.599 131.969 367.599 131.969 367.918 132.397ZM336.266 147.607C341.125 145.534 349.238 142.075 356.067 139.022C359.479 137.496 362.577 136.069 364.788 134.966C365.892 134.416 366.786 133.94 367.392 133.57C367.691 133.387 367.942 133.216 368.116 133.063C368.198 132.991 368.295 132.895 368.365 132.777C368.427 132.674 368.552 132.393 368.367 132.106L367.468 132.687C367.318 132.457 367.435 132.248 367.444 132.233C367.461 132.206 367.462 132.214 367.407 132.262C367.307 132.351 367.119 132.483 366.832 132.659C366.268 133.004 365.407 133.463 364.31 134.011C362.119 135.103 359.039 136.522 355.629 138.048C348.811 141.096 340.706 144.552 335.845 146.624L336.266 147.607ZM332.039 149.419C332.006 149.442 331.993 149.445 332.073 149.409C332.127 149.383 332.205 149.348 332.309 149.303C332.515 149.212 332.809 149.085 333.181 148.924C333.927 148.603 334.983 148.154 336.266 147.607L335.845 146.624C334.563 147.171 333.506 147.622 332.759 147.943C332.385 148.103 332.086 148.233 331.877 148.326C331.772 148.372 331.686 148.41 331.624 148.439C331.586 148.456 331.501 148.494 331.446 148.531L332.039 149.419ZM329.346 145.579C329.289 147.084 329.677 148.132 330.203 148.781C330.464 149.102 330.763 149.33 331.059 149.453C331.322 149.563 331.719 149.638 332.045 149.416L331.441 148.534C331.563 148.451 331.612 148.525 331.471 148.467C331.364 148.423 331.202 148.316 331.034 148.109C330.705 147.703 330.366 146.924 330.416 145.62L329.346 145.579ZM328.389 143.898C328.646 143.958 328.882 144.08 329.052 144.301C329.221 144.522 329.374 144.903 329.346 145.577L330.415 145.622C330.451 144.769 330.262 144.119 329.901 143.651C329.541 143.183 329.061 142.958 328.633 142.858L328.389 143.898ZM326.539 141.949C326.789 142.857 327.437 143.682 328.392 143.899L328.63 142.857C328.171 142.753 327.75 142.318 327.571 141.667L326.539 141.949ZM323.536 138.944C323.978 138.782 324.323 138.784 324.6 138.866C324.882 138.95 325.145 139.134 325.392 139.42C325.901 140.01 326.27 140.948 326.538 141.946L327.572 141.669C327.295 140.638 326.876 139.503 326.203 138.723C325.86 138.325 325.432 138 324.905 137.842C324.373 137.684 323.791 137.713 323.168 137.942L323.536 138.944ZM322.456 143.505C322.32 142.68 322.224 141.628 322.37 140.721C322.517 139.806 322.879 139.183 323.535 138.945L323.169 137.941C321.973 138.376 321.485 139.483 321.313 140.552C321.141 141.629 321.258 142.815 321.401 143.678L322.456 143.505ZM382.257 116.501C382.242 116.436 382.234 116.282 382.625 116.027C383.001 115.781 383.594 115.556 384.327 115.365C385.781 114.987 387.608 114.787 388.862 114.74L388.821 113.672C387.516 113.721 385.608 113.927 384.057 114.331C383.289 114.532 382.561 114.791 382.039 115.133C381.53 115.466 381.045 116.001 381.212 116.737L382.257 116.501ZM380.289 126.049C383.052 121.459 382.578 117.945 382.257 116.503L381.212 116.735C381.491 117.985 381.958 121.202 379.37 125.499L380.289 126.049ZM376.084 135.943C376.61 136.037 376.61 136.037 376.61 136.037C376.61 136.037 376.61 136.036 376.611 136.035C376.611 136.033 376.612 136.029 376.612 136.023C376.615 136.014 376.618 135.999 376.622 135.978C376.63 135.937 376.641 135.876 376.657 135.795C376.691 135.635 376.74 135.398 376.808 135.102C376.945 134.507 377.155 133.665 377.449 132.686C378.04 130.724 378.961 128.229 380.287 126.052L379.373 125.496C377.98 127.783 377.028 130.374 376.425 132.38C376.122 133.385 375.906 134.249 375.765 134.863C375.694 135.17 375.643 135.415 375.609 135.583C375.591 135.668 375.579 135.733 375.57 135.778C375.566 135.8 375.562 135.817 375.56 135.829C375.559 135.835 375.558 135.84 375.558 135.843C375.558 135.845 375.557 135.847 375.557 135.848C375.557 135.848 375.557 135.848 376.084 135.943ZM382.466 152.925L376.59 135.77L375.577 136.116L381.453 153.271L382.466 152.925ZM399.488 157.056C399.086 157.157 398.513 157.182 397.787 157.129C397.07 157.074 396.238 156.946 395.332 156.761C393.521 156.393 391.455 155.809 389.497 155.191C387.542 154.574 385.706 153.926 384.358 153.433C383.685 153.186 383.134 152.978 382.75 152.831C382.56 152.759 382.411 152.701 382.309 152.661C382.259 152.642 382.221 152.627 382.195 152.617C382.182 152.611 382.172 152.608 382.166 152.605C382.163 152.604 382.161 152.603 382.158 152.603C382.157 152.603 382.157 152.602 382.157 152.602C382.157 152.602 382.156 152.602 381.959 153.098C381.762 153.595 381.762 153.595 381.762 153.595C381.762 153.595 381.763 153.595 381.764 153.595C381.764 153.595 381.765 153.595 381.766 153.596C381.767 153.596 381.77 153.597 381.773 153.599C381.78 153.601 381.79 153.606 381.803 153.611C381.83 153.622 381.87 153.637 381.921 153.657C382.024 153.696 382.175 153.755 382.368 153.829C382.755 153.977 383.31 154.187 383.99 154.436C385.347 154.933 387.199 155.586 389.175 156.21C391.148 156.833 393.255 157.429 395.118 157.808C396.049 157.998 396.93 158.135 397.707 158.193C398.478 158.251 399.183 158.234 399.749 158.092L399.488 157.056ZM402.348 152.318C401.831 152.456 401.831 152.456 401.831 152.455C401.831 152.456 401.831 152.458 401.832 152.461C401.833 152.466 401.836 152.476 401.838 152.489C401.845 152.515 401.854 152.556 401.865 152.609C401.885 152.715 401.913 152.871 401.935 153.062C401.978 153.448 401.997 153.961 401.908 154.494C401.82 155.026 401.628 155.558 401.264 156.006C400.905 156.447 400.354 156.839 399.488 157.056L399.749 158.092C400.821 157.823 401.579 157.314 402.095 156.679C402.607 156.05 402.854 155.329 402.964 154.668C403.073 154.009 403.049 153.392 402.999 152.943C402.973 152.718 402.941 152.532 402.914 152.4C402.901 152.335 402.889 152.282 402.881 152.245C402.877 152.226 402.872 152.212 402.87 152.201C402.869 152.196 402.868 152.19 402.867 152.187C402.866 152.186 402.866 152.184 402.866 152.183L402.865 152.182C402.865 152.182 402.865 152.182 402.865 152.181C402.865 152.181 402.865 152.181 402.348 152.318ZM402.496 140.586C400.122 142.691 400.025 145.768 400.451 148.182C400.665 149.402 401.02 150.493 401.318 151.277C401.468 151.669 401.604 151.987 401.705 152.208C401.754 152.318 401.796 152.405 401.823 152.465C401.838 152.495 401.849 152.517 401.858 152.534C401.862 152.542 401.864 152.548 401.867 152.552C401.868 152.555 401.868 152.557 401.869 152.558C401.869 152.559 401.87 152.559 401.87 152.56C401.87 152.56 401.871 152.561 402.348 152.318C402.825 152.076 402.825 152.076 402.825 152.076C402.824 152.076 402.824 152.075 402.823 152.073C402.822 152.071 402.82 152.066 402.817 152.06C402.81 152.047 402.801 152.028 402.788 152.001C402.763 151.95 402.726 151.871 402.68 151.769C402.588 151.565 402.459 151.267 402.319 150.897C402.036 150.155 401.705 149.131 401.504 147.998C401.101 145.702 401.256 143.114 403.206 141.385L402.496 140.586ZM416.274 136.927C413.663 136.76 410.59 137.356 408.018 138.134C406.726 138.525 405.547 138.965 404.599 139.388C403.667 139.803 402.908 140.222 402.497 140.585L403.205 141.386C403.484 141.139 404.114 140.774 405.034 140.363C405.937 139.961 407.074 139.536 408.327 139.156C410.845 138.396 413.776 137.838 416.206 137.993L416.274 136.927ZM421.358 134.655C419.347 136.124 418.047 137.047 416.276 136.927L416.203 137.993C418.433 138.144 420.052 136.932 421.989 135.516L421.358 134.655ZM422.016 134.175C421.789 134.339 421.57 134.499 421.358 134.655L421.989 135.516C422.202 135.361 422.419 135.202 422.643 135.041L422.016 134.175ZM426.563 133.056C426.088 132.909 425.521 132.727 424.765 132.842C424.025 132.957 423.162 133.344 422.015 134.175L422.644 135.041C423.726 134.256 424.427 133.976 424.928 133.899C425.416 133.823 425.771 133.929 426.246 134.076L426.563 133.056ZM429.802 132.6C428.89 133.093 428.268 133.249 427.804 133.272C427.341 133.294 426.987 133.188 426.563 133.056L426.246 134.076C426.668 134.207 427.183 134.372 427.855 134.339C428.526 134.307 429.307 134.084 430.312 133.539L429.802 132.6ZM431.584 130.695C431.534 131.039 431.5 131.24 431.319 131.484C431.121 131.751 430.713 132.105 429.801 132.601L430.313 133.539C431.272 133.018 431.841 132.573 432.178 132.119C432.532 131.643 432.591 131.203 432.643 130.849L431.584 130.695ZM431.593 130.631C431.589 130.654 431.586 130.675 431.584 130.695L432.643 130.849C432.646 130.828 432.649 130.807 432.652 130.787L431.593 130.631ZM430.148 129.892C430.124 129.901 430.2 129.88 430.417 129.937C430.605 129.986 430.825 130.074 431.032 130.187C431.242 130.301 431.409 130.427 431.51 130.539C431.622 130.662 431.584 130.687 431.594 130.629L432.651 130.789C432.714 130.378 432.501 130.039 432.303 129.823C432.096 129.593 431.82 129.4 431.547 129.25C431.27 129.098 430.968 128.977 430.688 128.904C430.438 128.838 430.102 128.783 429.816 128.877L430.148 129.892ZM420.884 132.989L430.152 129.891L429.812 128.878L420.543 131.976L420.884 132.989ZM393.392 136.459C394.933 136.868 397.44 136.831 400.253 136.579C403.093 136.324 406.327 135.841 409.372 135.312C412.419 134.782 415.284 134.205 417.386 133.76C418.438 133.538 419.3 133.349 419.898 133.215C420.198 133.148 420.432 133.094 420.59 133.058C420.671 133.04 420.732 133.026 420.772 133.016C420.793 133.012 420.809 133.009 420.819 133.006C420.824 133.005 420.828 133.004 420.831 133.004C420.832 133.003 420.833 133.003 420.834 133.003C420.834 133.003 420.835 133.003 420.713 132.482C420.591 131.962 420.591 131.962 420.591 131.962C420.59 131.962 420.589 131.962 420.588 131.963C420.586 131.963 420.582 131.964 420.576 131.965C420.567 131.967 420.552 131.972 420.532 131.976C420.491 131.986 420.431 132 420.352 132.018C420.194 132.053 419.962 132.106 419.665 132.173C419.07 132.305 418.212 132.494 417.164 132.715C415.07 133.158 412.219 133.733 409.189 134.26C406.157 134.786 402.956 135.264 400.158 135.515C397.335 135.768 395.004 135.782 393.666 135.427L393.392 136.459ZM393.224 136.415C393.28 136.43 393.335 136.444 393.392 136.459L393.666 135.427C393.608 135.412 393.552 135.397 393.497 135.382L393.224 136.415ZM387.543 133.372C388.501 134.382 389.308 134.993 390.206 135.428C391.088 135.856 392.037 136.103 393.224 136.415L393.497 135.382C392.283 135.063 391.443 134.84 390.673 134.467C389.92 134.102 389.214 133.58 388.32 132.638L387.543 133.372ZM384.959 125.954C384.848 127.008 385.006 128.341 385.427 129.657C385.848 130.976 386.543 132.319 387.543 133.372L388.32 132.638C387.457 131.727 386.831 130.538 386.447 129.333C386.062 128.126 385.931 126.944 386.023 126.065L384.959 125.954ZM385.112 122.666C385.104 123.563 385.094 124.639 384.959 125.954L386.023 126.065C386.164 124.696 386.174 123.575 386.183 122.675L385.112 122.666ZM386.947 118.645C386.533 118.785 386.187 118.974 385.912 119.237C385.633 119.503 385.454 119.818 385.338 120.17C385.122 120.834 385.121 121.691 385.112 122.666L386.183 122.675C386.191 121.631 386.203 120.971 386.356 120.502C386.427 120.287 386.521 120.133 386.651 120.009C386.784 119.882 386.981 119.761 387.289 119.657L386.947 118.645ZM388.86 114.74C389.56 114.713 390.056 114.76 390.392 114.845C390.733 114.931 390.85 115.041 390.886 115.092C390.91 115.127 390.939 115.191 390.897 115.348C390.852 115.515 390.737 115.738 390.535 116.004C390.135 116.531 389.488 117.111 388.795 117.609C388.1 118.108 387.41 118.488 386.946 118.646L387.29 119.657C387.896 119.452 388.684 119.005 389.42 118.475C390.16 117.944 390.899 117.293 391.388 116.649C391.631 116.328 391.837 115.979 391.931 115.622C392.029 115.256 392.018 114.842 391.763 114.48C391.521 114.134 391.123 113.927 390.655 113.809C390.182 113.69 389.574 113.644 388.822 113.672L388.86 114.74Z" fill="#B42025"/>
<path d="M287.916 149.445L322.089 144.596C322.089 144.596 321.372 142.609 321.426 140.9C321.426 140.739 321.308 140.622 321.201 140.697C320.816 140.964 315.657 136.05 313.795 135.537C313.249 135.388 312.682 135.559 312.296 136.018C311.151 137.385 308.422 139.586 305.254 141.135C301.765 142.844 291.298 147.736 287.884 149.338" fill="#B42025"/>
<path d="M287.916 149.445L322.089 144.596C322.089 144.596 321.372 142.609 321.426 140.9C321.426 140.739 321.308 140.622 321.201 140.697C320.816 140.964 315.657 136.05 313.795 135.537C313.249 135.388 312.682 135.559 312.296 136.018C311.151 137.385 308.422 139.586 305.254 141.135C301.765 142.844 291.298 147.736 287.884 149.338" stroke="#B42025" stroke-miterlimit="10"/>
</g>
<path d="M391.833 117.383C391.224 117.876 390.051 114.934 390.761 114.258C459.675 48.6022 409.374 30.9242 311.98 22.9659C177.128 11.9467 -44.4156 40.0568 20.8699 233.931C21.023 234.386 19.9355 234.674 19.799 234.378C-53.0596 76.3748 85.6207 -14.9545 336.596 3.20449C418.289 9.1153 488.037 39.5227 391.833 117.383Z" fill="#B42025"/>
</g>
<defs>
<clipPath id="clip0_97_59">
<rect width="457" height="235" fill="white"/>
</clipPath>
</defs>
</svg>
